G04 #@! TF.GenerationSoftware,KiCad,Pcbnew,5.0.2*
G04 #@! TF.CreationDate,2020-03-31T15:33:04+02:00*
G04 #@! TF.ProjectId,pmod-dac-ls,706d6f64-2d64-4616-932d-6c732e6b6963,1*
G04 #@! TF.SameCoordinates,Original*
G04 #@! TF.FileFunction,Copper,L1,Top*
G04 #@! TF.FilePolarity,Positive*
%FSLAX46Y46*%
G04 Gerber Fmt 4.6, Leading zero omitted, Abs format (unit mm)*
G04 Created by KiCad (PCBNEW 5.0.2) date mar. 31 mars 2020 15:33:04 CEST*
%MOMM*%
%LPD*%
G01*
G04 APERTURE LIST*
G04 #@! TA.AperFunction,NonConductor*
%ADD10C,0.101600*%
G04 #@! TD*
G04 #@! TA.AperFunction,ComponentPad*
%ADD11C,2.000000*%
G04 #@! TD*
G04 #@! TA.AperFunction,ComponentPad*
%ADD12R,2.000000X2.000000*%
G04 #@! TD*
G04 #@! TA.AperFunction,ComponentPad*
%ADD13R,2.000000X1.900000*%
G04 #@! TD*
G04 #@! TA.AperFunction,ComponentPad*
%ADD14C,1.900000*%
G04 #@! TD*
G04 #@! TA.AperFunction,SMDPad,CuDef*
%ADD15R,0.635000X1.143000*%
G04 #@! TD*
G04 #@! TA.AperFunction,SMDPad,CuDef*
%ADD16R,1.000000X0.300000*%
G04 #@! TD*
G04 #@! TA.AperFunction,SMDPad,CuDef*
%ADD17R,1.000760X0.701040*%
G04 #@! TD*
G04 #@! TA.AperFunction,ComponentPad*
%ADD18R,2.540000X2.540000*%
G04 #@! TD*
G04 #@! TA.AperFunction,ComponentPad*
%ADD19C,2.540000*%
G04 #@! TD*
G04 #@! TA.AperFunction,SMDPad,CuDef*
%ADD20R,1.198880X1.198880*%
G04 #@! TD*
G04 #@! TA.AperFunction,SMDPad,CuDef*
%ADD21R,3.599180X1.198880*%
G04 #@! TD*
G04 #@! TA.AperFunction,SMDPad,CuDef*
%ADD22R,1.397000X0.889000*%
G04 #@! TD*
G04 #@! TA.AperFunction,SMDPad,CuDef*
%ADD23R,0.914400X0.914400*%
G04 #@! TD*
G04 #@! TA.AperFunction,SMDPad,CuDef*
%ADD24R,1.143000X0.635000*%
G04 #@! TD*
G04 #@! TA.AperFunction,ViaPad*
%ADD25C,0.711200*%
G04 #@! TD*
G04 #@! TA.AperFunction,Conductor*
%ADD26C,0.203200*%
G04 #@! TD*
G04 #@! TA.AperFunction,Conductor*
%ADD27C,0.406400*%
G04 #@! TD*
G04 APERTURE END LIST*
D10*
X164555857Y-114114714D02*
X164555857Y-113606714D01*
X164555857Y-113751857D02*
X164592142Y-113679285D01*
X164628428Y-113643000D01*
X164701000Y-113606714D01*
X164773571Y-113606714D01*
X165317857Y-114078428D02*
X165245285Y-114114714D01*
X165100142Y-114114714D01*
X165027571Y-114078428D01*
X164991285Y-114005857D01*
X164991285Y-113715571D01*
X165027571Y-113643000D01*
X165100142Y-113606714D01*
X165245285Y-113606714D01*
X165317857Y-113643000D01*
X165354142Y-113715571D01*
X165354142Y-113788142D01*
X164991285Y-113860714D01*
X165608142Y-113606714D02*
X165789571Y-114114714D01*
X165971000Y-113606714D01*
X166660428Y-114114714D02*
X166225000Y-114114714D01*
X166442714Y-114114714D02*
X166442714Y-113352714D01*
X166370142Y-113461571D01*
X166297571Y-113534142D01*
X166225000Y-113570428D01*
X154191571Y-114094714D02*
X154191571Y-113332714D01*
X154481857Y-113332714D01*
X154554428Y-113369000D01*
X154590714Y-113405285D01*
X154627000Y-113477857D01*
X154627000Y-113586714D01*
X154590714Y-113659285D01*
X154554428Y-113695571D01*
X154481857Y-113731857D01*
X154191571Y-113731857D01*
X154953571Y-114094714D02*
X154953571Y-113332714D01*
X155207571Y-113877000D01*
X155461571Y-113332714D01*
X155461571Y-114094714D01*
X155969571Y-113332714D02*
X156114714Y-113332714D01*
X156187285Y-113369000D01*
X156259857Y-113441571D01*
X156296142Y-113586714D01*
X156296142Y-113840714D01*
X156259857Y-113985857D01*
X156187285Y-114058428D01*
X156114714Y-114094714D01*
X155969571Y-114094714D01*
X155897000Y-114058428D01*
X155824428Y-113985857D01*
X155788142Y-113840714D01*
X155788142Y-113586714D01*
X155824428Y-113441571D01*
X155897000Y-113369000D01*
X155969571Y-113332714D01*
X156622714Y-114094714D02*
X156622714Y-113332714D01*
X156804142Y-113332714D01*
X156913000Y-113369000D01*
X156985571Y-113441571D01*
X157021857Y-113514142D01*
X157058142Y-113659285D01*
X157058142Y-113768142D01*
X157021857Y-113913285D01*
X156985571Y-113985857D01*
X156913000Y-114058428D01*
X156804142Y-114094714D01*
X156622714Y-114094714D01*
X157384714Y-113804428D02*
X157965285Y-113804428D01*
X158328142Y-114094714D02*
X158328142Y-113332714D01*
X158509571Y-113332714D01*
X158618428Y-113369000D01*
X158691000Y-113441571D01*
X158727285Y-113514142D01*
X158763571Y-113659285D01*
X158763571Y-113768142D01*
X158727285Y-113913285D01*
X158691000Y-113985857D01*
X158618428Y-114058428D01*
X158509571Y-114094714D01*
X158328142Y-114094714D01*
X159053857Y-113877000D02*
X159416714Y-113877000D01*
X158981285Y-114094714D02*
X159235285Y-113332714D01*
X159489285Y-114094714D01*
X160178714Y-114022142D02*
X160142428Y-114058428D01*
X160033571Y-114094714D01*
X159961000Y-114094714D01*
X159852142Y-114058428D01*
X159779571Y-113985857D01*
X159743285Y-113913285D01*
X159707000Y-113768142D01*
X159707000Y-113659285D01*
X159743285Y-113514142D01*
X159779571Y-113441571D01*
X159852142Y-113369000D01*
X159961000Y-113332714D01*
X160033571Y-113332714D01*
X160142428Y-113369000D01*
X160178714Y-113405285D01*
X160505285Y-113804428D02*
X161085857Y-113804428D01*
X161811571Y-114094714D02*
X161448714Y-114094714D01*
X161448714Y-113332714D01*
X162029285Y-114058428D02*
X162138142Y-114094714D01*
X162319571Y-114094714D01*
X162392142Y-114058428D01*
X162428428Y-114022142D01*
X162464714Y-113949571D01*
X162464714Y-113877000D01*
X162428428Y-113804428D01*
X162392142Y-113768142D01*
X162319571Y-113731857D01*
X162174428Y-113695571D01*
X162101857Y-113659285D01*
X162065571Y-113623000D01*
X162029285Y-113550428D01*
X162029285Y-113477857D01*
X162065571Y-113405285D01*
X162101857Y-113369000D01*
X162174428Y-113332714D01*
X162355857Y-113332714D01*
X162464714Y-113369000D01*
D11*
G04 #@! TO.P,J1,3*
G04 #@! TO.N,+VExt*
X146290000Y-96500000D03*
G04 #@! TO.P,J1,2*
G04 #@! TO.N,Net-(C5-Pad1)*
X143750000Y-96500000D03*
D12*
G04 #@! TO.P,J1,1*
G04 #@! TO.N,+3.3V*
X141210000Y-96500000D03*
G04 #@! TD*
D13*
G04 #@! TO.P,P1,1*
G04 #@! TO.N,PMOD_CS*
X136040000Y-98650000D03*
D14*
G04 #@! TO.P,P1,2*
G04 #@! TO.N,PMOD_MOSI*
X136040000Y-101190000D03*
G04 #@! TO.P,P1,3*
G04 #@! TO.N,Net-(P1-Pad3)*
X136040000Y-103730000D03*
G04 #@! TO.P,P1,4*
G04 #@! TO.N,PMOD_SCK*
X136040000Y-106270000D03*
G04 #@! TO.P,P1,5*
G04 #@! TO.N,GND*
X136040000Y-108810000D03*
G04 #@! TO.P,P1,6*
G04 #@! TO.N,+3.3V*
X136040000Y-111350000D03*
G04 #@! TO.P,P1,7*
G04 #@! TO.N,Net-(P1-Pad7)*
X133500000Y-98650000D03*
G04 #@! TO.P,P1,8*
G04 #@! TO.N,Net-(P1-Pad8)*
X133500000Y-101190000D03*
G04 #@! TO.P,P1,9*
G04 #@! TO.N,PMOD_GPIO*
X133500000Y-103730000D03*
G04 #@! TO.P,P1,10*
G04 #@! TO.N,Net-(P1-Pad10)*
X133500000Y-106270000D03*
G04 #@! TO.P,P1,11*
G04 #@! TO.N,GND*
X133500000Y-108810000D03*
G04 #@! TO.P,P1,12*
G04 #@! TO.N,+3.3V*
X133500000Y-111350000D03*
G04 #@! TD*
D15*
G04 #@! TO.P,R1,1*
G04 #@! TO.N,PMOD_GPIO*
X144262000Y-105000000D03*
G04 #@! TO.P,R1,2*
G04 #@! TO.N,GND*
X142738000Y-105000000D03*
G04 #@! TD*
D16*
G04 #@! TO.P,U1,1*
G04 #@! TO.N,+3.3V*
X141050000Y-101750000D03*
G04 #@! TO.P,U1,2*
G04 #@! TO.N,PMOD_CS*
X141050000Y-102250000D03*
G04 #@! TO.P,U1,3*
G04 #@! TO.N,PMOD_SCK*
X141050000Y-102750000D03*
G04 #@! TO.P,U1,4*
G04 #@! TO.N,PMOD_MOSI*
X141050000Y-103250000D03*
G04 #@! TO.P,U1,5*
G04 #@! TO.N,PMOD_GPIO*
X145950000Y-103250000D03*
G04 #@! TO.P,U1,6*
G04 #@! TO.N,Net-(R6-Pad2)*
X145950000Y-102750000D03*
G04 #@! TO.P,U1,7*
G04 #@! TO.N,GND*
X145950000Y-102250000D03*
G04 #@! TO.P,U1,8*
G04 #@! TO.N,Net-(U1-Pad8)*
X145950000Y-101750000D03*
G04 #@! TD*
D15*
G04 #@! TO.P,R2,1*
G04 #@! TO.N,Net-(Q1-Pad1)*
X152262000Y-113000000D03*
G04 #@! TO.P,R2,2*
G04 #@! TO.N,Net-(R2-Pad2)*
X150738000Y-113000000D03*
G04 #@! TD*
D17*
G04 #@! TO.P,U2,5*
G04 #@! TO.N,+3.3V*
X147730000Y-111202500D03*
G04 #@! TO.P,U2,4*
G04 #@! TO.N,Net-(R4-Pad2)*
X147730000Y-109297500D03*
G04 #@! TO.P,U2,3*
G04 #@! TO.N,Net-(U1-Pad8)*
X150270000Y-109297500D03*
G04 #@! TO.P,U2,2*
G04 #@! TO.N,GND*
X150270000Y-110250000D03*
G04 #@! TO.P,U2,1*
G04 #@! TO.N,Net-(R2-Pad2)*
X150270000Y-111202500D03*
G04 #@! TD*
D18*
G04 #@! TO.P,P2,1*
G04 #@! TO.N,GND*
X162470000Y-110080000D03*
D19*
G04 #@! TO.P,P2,3*
G04 #@! TO.N,+VExt*
X162470000Y-99920000D03*
G04 #@! TO.P,P2,2*
G04 #@! TO.N,Net-(C2-Pad1)*
X162470000Y-105000000D03*
G04 #@! TD*
D20*
G04 #@! TO.P,Q2,2*
G04 #@! TO.N,Net-(C5-Pad1)*
X153000000Y-103050540D03*
G04 #@! TO.P,Q2,1*
G04 #@! TO.N,Net-(Q2-Pad1)*
X150698760Y-103050540D03*
G04 #@! TO.P,Q2,3*
G04 #@! TO.N,Net-(C2-Pad1)*
X155301240Y-103050540D03*
D21*
G04 #@! TO.P,Q2,4*
G04 #@! TO.N,N/C*
X153000000Y-96949460D03*
G04 #@! TD*
D22*
G04 #@! TO.P,C1,1*
G04 #@! TO.N,+3.3V*
X138500000Y-111297500D03*
G04 #@! TO.P,C1,2*
G04 #@! TO.N,GND*
X138500000Y-113202500D03*
G04 #@! TD*
G04 #@! TO.P,C2,2*
G04 #@! TO.N,GND*
X155240000Y-106962500D03*
G04 #@! TO.P,C2,1*
G04 #@! TO.N,Net-(C2-Pad1)*
X155240000Y-105057500D03*
G04 #@! TD*
D23*
G04 #@! TO.P,Q1,2*
G04 #@! TO.N,GND*
X154639000Y-111266000D03*
G04 #@! TO.P,Q1,1*
G04 #@! TO.N,Net-(Q1-Pad1)*
X152861000Y-111266000D03*
G04 #@! TO.P,Q1,3*
G04 #@! TO.N,Net-(Q1-Pad3)*
X153750000Y-109234000D03*
G04 #@! TD*
D24*
G04 #@! TO.P,R3,1*
G04 #@! TO.N,Net-(Q2-Pad1)*
X152000000Y-105228000D03*
G04 #@! TO.P,R3,2*
G04 #@! TO.N,Net-(Q1-Pad3)*
X152000000Y-106752000D03*
G04 #@! TD*
G04 #@! TO.P,R4,1*
G04 #@! TO.N,Net-(C2-Pad1)*
X150000000Y-105238000D03*
G04 #@! TO.P,R4,2*
G04 #@! TO.N,Net-(R4-Pad2)*
X150000000Y-106762000D03*
G04 #@! TD*
G04 #@! TO.P,R5,2*
G04 #@! TO.N,Net-(R4-Pad2)*
X148000000Y-106762000D03*
G04 #@! TO.P,R5,1*
G04 #@! TO.N,GND*
X148000000Y-105238000D03*
G04 #@! TD*
D15*
G04 #@! TO.P,C3,1*
G04 #@! TO.N,+3.3V*
X140988000Y-100000000D03*
G04 #@! TO.P,C3,2*
G04 #@! TO.N,GND*
X142512000Y-100000000D03*
G04 #@! TD*
D24*
G04 #@! TO.P,C4,2*
G04 #@! TO.N,GND*
X146250000Y-112762000D03*
G04 #@! TO.P,C4,1*
G04 #@! TO.N,+3.3V*
X146250000Y-111238000D03*
G04 #@! TD*
D15*
G04 #@! TO.P,R6,1*
G04 #@! TO.N,+3.3V*
X144238000Y-100000000D03*
G04 #@! TO.P,R6,2*
G04 #@! TO.N,Net-(R6-Pad2)*
X145762000Y-100000000D03*
G04 #@! TD*
D22*
G04 #@! TO.P,C5,1*
G04 #@! TO.N,Net-(C5-Pad1)*
X148250000Y-98797500D03*
G04 #@! TO.P,C5,2*
G04 #@! TO.N,GND*
X148250000Y-100702500D03*
G04 #@! TD*
D25*
G04 #@! TO.N,GND*
X156650000Y-106960000D03*
X148000000Y-104250000D03*
X155750000Y-111260000D03*
X151400000Y-110250000D03*
X147000000Y-102250000D03*
X138500000Y-114500000D03*
X142750000Y-106250000D03*
X147500000Y-112760000D03*
X142500000Y-101250000D03*
X137050000Y-102460000D03*
X148500000Y-101750000D03*
G04 #@! TD*
D26*
G04 #@! TO.N,PMOD_CS*
X141050000Y-102250000D02*
X140300000Y-102250000D01*
X140300000Y-102250000D02*
X138480000Y-100430000D01*
X138480000Y-100430000D02*
X138480000Y-99700000D01*
X138480000Y-99700000D02*
X137430000Y-98650000D01*
X137430000Y-98650000D02*
X136040000Y-98650000D01*
G04 #@! TO.N,PMOD_MOSI*
X141050000Y-103250000D02*
X140130000Y-103250000D01*
X140130000Y-103250000D02*
X138070000Y-101190000D01*
X138070000Y-101190000D02*
X136040000Y-101190000D01*
G04 #@! TO.N,PMOD_SCK*
X136040000Y-106270000D02*
X139730000Y-106270000D01*
X139730000Y-106270000D02*
X142280000Y-103720000D01*
X142280000Y-103720000D02*
X142280000Y-103060000D01*
X142280000Y-103060000D02*
X141970000Y-102750000D01*
X141970000Y-102750000D02*
X141050000Y-102750000D01*
D27*
G04 #@! TO.N,GND*
X155240000Y-106962500D02*
X156647500Y-106962500D01*
X156647500Y-106962500D02*
X156650000Y-106960000D01*
X133500000Y-108810000D02*
X136040000Y-108810000D01*
X148000000Y-105238000D02*
X148000000Y-104250000D01*
X154639000Y-111266000D02*
X155744000Y-111266000D01*
X155744000Y-111266000D02*
X155750000Y-111260000D01*
X150270000Y-110250000D02*
X151400000Y-110250000D01*
D26*
X145950000Y-102250000D02*
X147000000Y-102250000D01*
D27*
X138500000Y-113202500D02*
X138500000Y-114500000D01*
X142738000Y-105000000D02*
X142738000Y-106238000D01*
X142738000Y-106238000D02*
X142750000Y-106250000D01*
X146250000Y-112762000D02*
X147498000Y-112762000D01*
X147498000Y-112762000D02*
X147500000Y-112760000D01*
X142512000Y-100000000D02*
X142512000Y-101238000D01*
X142512000Y-101238000D02*
X142500000Y-101250000D01*
X148500000Y-101750000D02*
X148500000Y-100952500D01*
X148500000Y-100952500D02*
X148250000Y-100702500D01*
G04 #@! TO.N,+3.3V*
X133500000Y-111350000D02*
X136040000Y-111350000D01*
X138500000Y-111297500D02*
X137362500Y-111297500D01*
X137362500Y-111297500D02*
X137310000Y-111350000D01*
X137310000Y-111350000D02*
X136040000Y-111350000D01*
X147730000Y-111202500D02*
X146285500Y-111202500D01*
X146285500Y-111202500D02*
X146250000Y-111238000D01*
X138500000Y-111297500D02*
X146190500Y-111297500D01*
X146190500Y-111297500D02*
X146250000Y-111238000D01*
X140988000Y-100000000D02*
X140988000Y-101008000D01*
X140988000Y-101008000D02*
X141050000Y-101070000D01*
X141050000Y-101070000D02*
X141050000Y-101560000D01*
D26*
X141050000Y-101750000D02*
X141050000Y-101560000D01*
D27*
X140988000Y-100000000D02*
X140060000Y-100000000D01*
X137060000Y-97000000D02*
X133090000Y-97000000D01*
X133090000Y-97000000D02*
X132040000Y-98050000D01*
X132040000Y-98050000D02*
X132040000Y-111950000D01*
X132040000Y-111950000D02*
X132900000Y-112810000D01*
X132900000Y-112810000D02*
X136987500Y-112810000D01*
X136987500Y-112810000D02*
X138500000Y-111297500D01*
X144238000Y-100000000D02*
X144238000Y-99738000D01*
X144238000Y-99738000D02*
X143270000Y-98770000D01*
X143270000Y-98770000D02*
X141310000Y-98770000D01*
X141310000Y-98770000D02*
X140988000Y-99092000D01*
X140988000Y-99092000D02*
X140988000Y-100000000D01*
X140060000Y-100000000D02*
X137060000Y-97000000D01*
X141210000Y-96500000D02*
X137560000Y-96500000D01*
X137560000Y-96500000D02*
X137060000Y-97000000D01*
D26*
G04 #@! TO.N,PMOD_GPIO*
X145950000Y-103250000D02*
X145010000Y-103250000D01*
X145010000Y-103250000D02*
X144262000Y-103998000D01*
X144262000Y-103998000D02*
X144262000Y-105000000D01*
X133500000Y-103730000D02*
X134770000Y-105000000D01*
X134770000Y-105000000D02*
X134770000Y-106920000D01*
X134770000Y-106920000D02*
X135390000Y-107540000D01*
X135390000Y-107540000D02*
X142710000Y-107540000D01*
X142710000Y-107540000D02*
X144262000Y-105988000D01*
X144262000Y-105988000D02*
X144262000Y-105000000D01*
G04 #@! TO.N,Net-(U1-Pad8)*
X146630000Y-101750000D02*
X146860000Y-101520000D01*
X146860000Y-101520000D02*
X147000000Y-101520000D01*
D27*
X147000000Y-101520000D02*
X147320000Y-101520000D01*
X147320000Y-101520000D02*
X147740000Y-101940000D01*
X147740000Y-101940000D02*
X147740000Y-103280000D01*
X147740000Y-103280000D02*
X146250000Y-104770000D01*
D26*
X145950000Y-101750000D02*
X146630000Y-101750000D01*
D27*
X146250000Y-104770000D02*
X146250000Y-109380000D01*
X146250000Y-109380000D02*
X147120000Y-110250000D01*
X147120000Y-110250000D02*
X148520000Y-110250000D01*
X148520000Y-110250000D02*
X149472500Y-109297500D01*
X149472500Y-109297500D02*
X150270000Y-109297500D01*
G04 #@! TO.N,Net-(R2-Pad2)*
X150738000Y-113000000D02*
X150738000Y-112188000D01*
X150738000Y-112188000D02*
X150270000Y-111720000D01*
X150270000Y-111720000D02*
X150270000Y-111202500D01*
G04 #@! TO.N,Net-(Q1-Pad1)*
X152262000Y-113000000D02*
X152262000Y-111865000D01*
X152262000Y-111865000D02*
X152861000Y-111266000D01*
G04 #@! TO.N,Net-(R4-Pad2)*
X148000000Y-106762000D02*
X150000000Y-106762000D01*
X148000000Y-106762000D02*
X148000000Y-107960000D01*
X148000000Y-107960000D02*
X147730000Y-108230000D01*
X147730000Y-108230000D02*
X147730000Y-109297500D01*
G04 #@! TO.N,Net-(Q2-Pad1)*
X152000000Y-105228000D02*
X152000000Y-104351780D01*
X152000000Y-104351780D02*
X150698760Y-103050540D01*
G04 #@! TO.N,Net-(C2-Pad1)*
X155240000Y-105057500D02*
X160402500Y-105057500D01*
X160402500Y-105057500D02*
X160460000Y-105000000D01*
X160460000Y-105000000D02*
X162470000Y-105000000D01*
X155301240Y-103050540D02*
X155301240Y-104996260D01*
X155301240Y-104996260D02*
X155240000Y-105057500D01*
X155240000Y-105057500D02*
X154122500Y-105057500D01*
X154122500Y-105057500D02*
X153190000Y-105990000D01*
X153190000Y-105990000D02*
X151000000Y-105990000D01*
X151000000Y-105990000D02*
X150248000Y-105238000D01*
X150248000Y-105238000D02*
X150000000Y-105238000D01*
G04 #@! TO.N,Net-(Q1-Pad3)*
X152000000Y-106752000D02*
X152000000Y-107484000D01*
X152000000Y-107484000D02*
X153750000Y-109234000D01*
D26*
G04 #@! TO.N,Net-(R6-Pad2)*
X145950000Y-102750000D02*
X145070000Y-102750000D01*
X145070000Y-102750000D02*
X144720000Y-102400000D01*
X144720000Y-102400000D02*
X144720000Y-101290000D01*
X144720000Y-101290000D02*
X145762000Y-100248000D01*
X145762000Y-100248000D02*
X145762000Y-100000000D01*
D27*
G04 #@! TO.N,Net-(C5-Pad1)*
X153000000Y-103050540D02*
X153000000Y-101060000D01*
X148250000Y-98797500D02*
X150737500Y-98797500D01*
X150737500Y-98797500D02*
X153000000Y-101060000D01*
X148250000Y-98797500D02*
X146047500Y-98797500D01*
X146047500Y-98797500D02*
X143750000Y-96500000D01*
G04 #@! TD*
D26*
G04 #@! TO.N,GND*
G36*
X139990252Y-95280252D02*
X139922885Y-95381073D01*
X139899229Y-95500000D01*
X139899229Y-95992000D01*
X137610028Y-95992000D01*
X137560000Y-95982049D01*
X137509972Y-95992000D01*
X137509968Y-95992000D01*
X137361788Y-96021475D01*
X137236167Y-96105412D01*
X137236165Y-96105414D01*
X137193753Y-96133753D01*
X137165414Y-96176165D01*
X136849580Y-96492000D01*
X133140027Y-96492000D01*
X133089999Y-96482049D01*
X133039971Y-96492000D01*
X133039968Y-96492000D01*
X132891788Y-96521475D01*
X132766167Y-96605412D01*
X132766165Y-96605414D01*
X132723753Y-96633753D01*
X132695414Y-96676165D01*
X131716168Y-97655412D01*
X131673753Y-97683753D01*
X131561475Y-97851789D01*
X131532000Y-97999969D01*
X131532000Y-97999972D01*
X131522049Y-98050000D01*
X131532000Y-98100028D01*
X131532001Y-111899967D01*
X131522049Y-111950000D01*
X131561475Y-112148211D01*
X131645412Y-112273832D01*
X131645415Y-112273835D01*
X131673754Y-112316247D01*
X131716166Y-112344586D01*
X132505414Y-113133835D01*
X132533753Y-113176247D01*
X132576165Y-113204586D01*
X132576167Y-113204588D01*
X132641286Y-113248098D01*
X132701788Y-113288525D01*
X132849968Y-113318000D01*
X132849972Y-113318000D01*
X132900000Y-113327951D01*
X132950028Y-113318000D01*
X136937472Y-113318000D01*
X136987500Y-113327951D01*
X137037528Y-113318000D01*
X137037532Y-113318000D01*
X137171258Y-113291400D01*
X137547500Y-113291400D01*
X137547500Y-113697524D01*
X137586169Y-113790880D01*
X137657621Y-113862331D01*
X137750976Y-113901000D01*
X138411100Y-113901000D01*
X138474600Y-113837500D01*
X138474600Y-113227900D01*
X138525400Y-113227900D01*
X138525400Y-113837500D01*
X138588900Y-113901000D01*
X139249024Y-113901000D01*
X139342379Y-113862331D01*
X139413831Y-113790880D01*
X139452500Y-113697524D01*
X139452500Y-113291400D01*
X139389000Y-113227900D01*
X138525400Y-113227900D01*
X138474600Y-113227900D01*
X137611000Y-113227900D01*
X137547500Y-113291400D01*
X137171258Y-113291400D01*
X137185712Y-113288525D01*
X137353747Y-113176247D01*
X137382088Y-113133832D01*
X137547500Y-112968420D01*
X137547500Y-113113600D01*
X137611000Y-113177100D01*
X138474600Y-113177100D01*
X138474600Y-112567500D01*
X138525400Y-112567500D01*
X138525400Y-113177100D01*
X139389000Y-113177100D01*
X139452500Y-113113600D01*
X139452500Y-112850900D01*
X145424500Y-112850900D01*
X145424500Y-113130024D01*
X145463169Y-113223380D01*
X145534621Y-113294831D01*
X145627976Y-113333500D01*
X146161100Y-113333500D01*
X146224600Y-113270000D01*
X146224600Y-112787400D01*
X146275400Y-112787400D01*
X146275400Y-113270000D01*
X146338900Y-113333500D01*
X146872024Y-113333500D01*
X146965379Y-113294831D01*
X147036831Y-113223380D01*
X147075500Y-113130024D01*
X147075500Y-112850900D01*
X147012000Y-112787400D01*
X146275400Y-112787400D01*
X146224600Y-112787400D01*
X145488000Y-112787400D01*
X145424500Y-112850900D01*
X139452500Y-112850900D01*
X139452500Y-112707476D01*
X139413831Y-112614120D01*
X139342379Y-112542669D01*
X139249024Y-112504000D01*
X138588900Y-112504000D01*
X138525400Y-112567500D01*
X138474600Y-112567500D01*
X138411100Y-112504000D01*
X138011920Y-112504000D01*
X138121944Y-112393976D01*
X145424500Y-112393976D01*
X145424500Y-112673100D01*
X145488000Y-112736600D01*
X146224600Y-112736600D01*
X146224600Y-112254000D01*
X146275400Y-112254000D01*
X146275400Y-112736600D01*
X147012000Y-112736600D01*
X147075500Y-112673100D01*
X147075500Y-112393976D01*
X147036831Y-112300620D01*
X146965379Y-112229169D01*
X146872024Y-112190500D01*
X146338900Y-112190500D01*
X146275400Y-112254000D01*
X146224600Y-112254000D01*
X146161100Y-112190500D01*
X145627976Y-112190500D01*
X145534621Y-112229169D01*
X145463169Y-112300620D01*
X145424500Y-112393976D01*
X138121944Y-112393976D01*
X138463150Y-112052771D01*
X139198500Y-112052771D01*
X139317427Y-112029115D01*
X139418248Y-111961748D01*
X139485615Y-111860927D01*
X139496640Y-111805500D01*
X145504027Y-111805500D01*
X145559573Y-111842615D01*
X145678500Y-111866271D01*
X146821500Y-111866271D01*
X146940427Y-111842615D01*
X147027416Y-111784490D01*
X147110693Y-111840135D01*
X147229620Y-111863791D01*
X148230380Y-111863791D01*
X148349307Y-111840135D01*
X148450128Y-111772768D01*
X148517495Y-111671947D01*
X148541151Y-111553020D01*
X148541151Y-110851980D01*
X149458849Y-110851980D01*
X149458849Y-111553020D01*
X149482505Y-111671947D01*
X149549872Y-111772768D01*
X149650693Y-111840135D01*
X149769620Y-111863791D01*
X149780650Y-111863791D01*
X149781304Y-111867079D01*
X149791475Y-111918211D01*
X149865579Y-112029115D01*
X149903753Y-112086247D01*
X149946167Y-112114588D01*
X150136496Y-112304917D01*
X150133385Y-112309573D01*
X150109729Y-112428500D01*
X150109729Y-113571500D01*
X150133385Y-113690427D01*
X150200752Y-113791248D01*
X150301573Y-113858615D01*
X150420500Y-113882271D01*
X151055500Y-113882271D01*
X151174427Y-113858615D01*
X151275248Y-113791248D01*
X151342615Y-113690427D01*
X151366271Y-113571500D01*
X151366271Y-112428500D01*
X151633729Y-112428500D01*
X151633729Y-113571500D01*
X151657385Y-113690427D01*
X151724752Y-113791248D01*
X151825573Y-113858615D01*
X151944500Y-113882271D01*
X152579500Y-113882271D01*
X152698427Y-113858615D01*
X152799248Y-113791248D01*
X152866615Y-113690427D01*
X152890271Y-113571500D01*
X152890271Y-112428500D01*
X152866615Y-112309573D01*
X152799248Y-112208752D01*
X152770000Y-112189209D01*
X152770000Y-112075420D01*
X152811449Y-112033971D01*
X153318200Y-112033971D01*
X153437127Y-112010315D01*
X153537948Y-111942948D01*
X153605315Y-111842127D01*
X153628971Y-111723200D01*
X153628971Y-111354900D01*
X153927800Y-111354900D01*
X153927800Y-111773724D01*
X153966469Y-111867079D01*
X154037920Y-111938531D01*
X154131276Y-111977200D01*
X154550100Y-111977200D01*
X154613600Y-111913700D01*
X154613600Y-111291400D01*
X154664400Y-111291400D01*
X154664400Y-111913700D01*
X154727900Y-111977200D01*
X155146724Y-111977200D01*
X155240080Y-111938531D01*
X155311531Y-111867079D01*
X155350200Y-111773724D01*
X155350200Y-111354900D01*
X155286700Y-111291400D01*
X154664400Y-111291400D01*
X154613600Y-111291400D01*
X153991300Y-111291400D01*
X153927800Y-111354900D01*
X153628971Y-111354900D01*
X153628971Y-110808800D01*
X153618922Y-110758276D01*
X153927800Y-110758276D01*
X153927800Y-111177100D01*
X153991300Y-111240600D01*
X154613600Y-111240600D01*
X154613600Y-110618300D01*
X154664400Y-110618300D01*
X154664400Y-111240600D01*
X155286700Y-111240600D01*
X155350200Y-111177100D01*
X155350200Y-110758276D01*
X155311531Y-110664921D01*
X155240080Y-110593469D01*
X155146724Y-110554800D01*
X154727900Y-110554800D01*
X154664400Y-110618300D01*
X154613600Y-110618300D01*
X154550100Y-110554800D01*
X154131276Y-110554800D01*
X154037920Y-110593469D01*
X153966469Y-110664921D01*
X153927800Y-110758276D01*
X153618922Y-110758276D01*
X153605315Y-110689873D01*
X153537948Y-110589052D01*
X153437127Y-110521685D01*
X153318200Y-110498029D01*
X152403800Y-110498029D01*
X152284873Y-110521685D01*
X152184052Y-110589052D01*
X152116685Y-110689873D01*
X152093029Y-110808800D01*
X152093029Y-111315551D01*
X151938166Y-111470414D01*
X151895754Y-111498753D01*
X151867415Y-111541165D01*
X151867412Y-111541168D01*
X151783475Y-111666789D01*
X151744049Y-111865000D01*
X151754001Y-111915032D01*
X151754001Y-112189208D01*
X151724752Y-112208752D01*
X151657385Y-112309573D01*
X151633729Y-112428500D01*
X151366271Y-112428500D01*
X151342615Y-112309573D01*
X151275248Y-112208752D01*
X151254571Y-112194936D01*
X151255951Y-112188000D01*
X151246000Y-112137972D01*
X151246000Y-112137968D01*
X151216525Y-111989788D01*
X151197789Y-111961748D01*
X151132588Y-111864167D01*
X151132586Y-111864165D01*
X151104247Y-111821753D01*
X151061835Y-111793414D01*
X151010580Y-111742159D01*
X151057495Y-111671947D01*
X151081151Y-111553020D01*
X151081151Y-110851980D01*
X151057495Y-110733053D01*
X151016083Y-110671076D01*
X151024380Y-110651044D01*
X151024380Y-110338900D01*
X150960880Y-110275400D01*
X150295400Y-110275400D01*
X150295400Y-110295400D01*
X150244600Y-110295400D01*
X150244600Y-110275400D01*
X149579120Y-110275400D01*
X149515620Y-110338900D01*
X149515620Y-110651044D01*
X149523917Y-110671076D01*
X149482505Y-110733053D01*
X149458849Y-110851980D01*
X148541151Y-110851980D01*
X148524268Y-110767102D01*
X148570028Y-110758000D01*
X148570032Y-110758000D01*
X148718212Y-110728525D01*
X148886247Y-110616247D01*
X148914588Y-110573832D01*
X149515620Y-109972800D01*
X149515620Y-110161100D01*
X149579120Y-110224600D01*
X150244600Y-110224600D01*
X150244600Y-110204600D01*
X150295400Y-110204600D01*
X150295400Y-110224600D01*
X150960880Y-110224600D01*
X151016580Y-110168900D01*
X160946000Y-110168900D01*
X160946000Y-111400524D01*
X160984669Y-111493880D01*
X161056121Y-111565331D01*
X161149476Y-111604000D01*
X162381100Y-111604000D01*
X162444600Y-111540500D01*
X162444600Y-110105400D01*
X162495400Y-110105400D01*
X162495400Y-111540500D01*
X162558900Y-111604000D01*
X163790524Y-111604000D01*
X163883879Y-111565331D01*
X163955331Y-111493880D01*
X163994000Y-111400524D01*
X163994000Y-110168900D01*
X163930500Y-110105400D01*
X162495400Y-110105400D01*
X162444600Y-110105400D01*
X161009500Y-110105400D01*
X160946000Y-110168900D01*
X151016580Y-110168900D01*
X151024380Y-110161100D01*
X151024380Y-109848956D01*
X151016083Y-109828924D01*
X151057495Y-109766947D01*
X151081151Y-109648020D01*
X151081151Y-108946980D01*
X151057495Y-108828053D01*
X150990128Y-108727232D01*
X150889307Y-108659865D01*
X150770380Y-108636209D01*
X149769620Y-108636209D01*
X149650693Y-108659865D01*
X149549872Y-108727232D01*
X149509939Y-108786996D01*
X149472499Y-108779549D01*
X149422471Y-108789500D01*
X149422468Y-108789500D01*
X149274288Y-108818975D01*
X149106253Y-108931253D01*
X149077912Y-108973668D01*
X148541151Y-109510429D01*
X148541151Y-108946980D01*
X148517495Y-108828053D01*
X148450128Y-108727232D01*
X148349307Y-108659865D01*
X148238000Y-108637725D01*
X148238000Y-108440420D01*
X148323832Y-108354588D01*
X148366247Y-108326247D01*
X148478525Y-108158212D01*
X148508000Y-108010032D01*
X148508000Y-108010028D01*
X148517951Y-107960000D01*
X148508000Y-107909972D01*
X148508000Y-107390271D01*
X148571500Y-107390271D01*
X148690427Y-107366615D01*
X148791248Y-107299248D01*
X148810791Y-107270000D01*
X149189209Y-107270000D01*
X149208752Y-107299248D01*
X149309573Y-107366615D01*
X149428500Y-107390271D01*
X150571500Y-107390271D01*
X150690427Y-107366615D01*
X150791248Y-107299248D01*
X150858615Y-107198427D01*
X150882271Y-107079500D01*
X150882271Y-106484534D01*
X150949968Y-106498000D01*
X150949972Y-106498000D01*
X151000000Y-106507951D01*
X151050028Y-106498000D01*
X151117729Y-106498000D01*
X151117729Y-107069500D01*
X151141385Y-107188427D01*
X151208752Y-107289248D01*
X151309573Y-107356615D01*
X151428500Y-107380271D01*
X151492001Y-107380271D01*
X151492001Y-107433968D01*
X151482049Y-107484000D01*
X151521475Y-107682211D01*
X151605412Y-107807832D01*
X151605415Y-107807835D01*
X151633754Y-107850247D01*
X151676166Y-107878586D01*
X152982029Y-109184450D01*
X152982029Y-109691200D01*
X153005685Y-109810127D01*
X153073052Y-109910948D01*
X153173873Y-109978315D01*
X153292800Y-110001971D01*
X154207200Y-110001971D01*
X154326127Y-109978315D01*
X154426948Y-109910948D01*
X154494315Y-109810127D01*
X154517971Y-109691200D01*
X154517971Y-108776800D01*
X154514526Y-108759476D01*
X160946000Y-108759476D01*
X160946000Y-109991100D01*
X161009500Y-110054600D01*
X162444600Y-110054600D01*
X162444600Y-108619500D01*
X162495400Y-108619500D01*
X162495400Y-110054600D01*
X163930500Y-110054600D01*
X163994000Y-109991100D01*
X163994000Y-108759476D01*
X163955331Y-108666120D01*
X163883879Y-108594669D01*
X163790524Y-108556000D01*
X162558900Y-108556000D01*
X162495400Y-108619500D01*
X162444600Y-108619500D01*
X162381100Y-108556000D01*
X161149476Y-108556000D01*
X161056121Y-108594669D01*
X160984669Y-108666120D01*
X160946000Y-108759476D01*
X154514526Y-108759476D01*
X154494315Y-108657873D01*
X154426948Y-108557052D01*
X154326127Y-108489685D01*
X154207200Y-108466029D01*
X153700450Y-108466029D01*
X152607525Y-107373105D01*
X152690427Y-107356615D01*
X152791248Y-107289248D01*
X152858615Y-107188427D01*
X152882271Y-107069500D01*
X152882271Y-107051400D01*
X154287500Y-107051400D01*
X154287500Y-107457524D01*
X154326169Y-107550880D01*
X154397621Y-107622331D01*
X154490976Y-107661000D01*
X155151100Y-107661000D01*
X155214600Y-107597500D01*
X155214600Y-106987900D01*
X155265400Y-106987900D01*
X155265400Y-107597500D01*
X155328900Y-107661000D01*
X155989024Y-107661000D01*
X156082379Y-107622331D01*
X156153831Y-107550880D01*
X156192500Y-107457524D01*
X156192500Y-107051400D01*
X156129000Y-106987900D01*
X155265400Y-106987900D01*
X155214600Y-106987900D01*
X154351000Y-106987900D01*
X154287500Y-107051400D01*
X152882271Y-107051400D01*
X152882271Y-106498000D01*
X153139972Y-106498000D01*
X153190000Y-106507951D01*
X153240028Y-106498000D01*
X153240032Y-106498000D01*
X153388212Y-106468525D01*
X153389781Y-106467476D01*
X154287500Y-106467476D01*
X154287500Y-106873600D01*
X154351000Y-106937100D01*
X155214600Y-106937100D01*
X155214600Y-106327500D01*
X155265400Y-106327500D01*
X155265400Y-106937100D01*
X156129000Y-106937100D01*
X156192500Y-106873600D01*
X156192500Y-106467476D01*
X156153831Y-106374120D01*
X156082379Y-106302669D01*
X155989024Y-106264000D01*
X155328900Y-106264000D01*
X155265400Y-106327500D01*
X155214600Y-106327500D01*
X155151100Y-106264000D01*
X154490976Y-106264000D01*
X154397621Y-106302669D01*
X154326169Y-106374120D01*
X154287500Y-106467476D01*
X153389781Y-106467476D01*
X153556247Y-106356247D01*
X153584588Y-106313832D01*
X154263641Y-105634780D01*
X154321752Y-105721748D01*
X154422573Y-105789115D01*
X154541500Y-105812771D01*
X155938500Y-105812771D01*
X156057427Y-105789115D01*
X156158248Y-105721748D01*
X156225615Y-105620927D01*
X156236640Y-105565500D01*
X160352472Y-105565500D01*
X160402500Y-105575451D01*
X160452528Y-105565500D01*
X160452532Y-105565500D01*
X160600712Y-105536025D01*
X160642654Y-105508000D01*
X160975869Y-105508000D01*
X161134949Y-105892052D01*
X161577948Y-106335051D01*
X162156753Y-106574800D01*
X162783247Y-106574800D01*
X163362052Y-106335051D01*
X163805051Y-105892052D01*
X164044800Y-105313247D01*
X164044800Y-104686753D01*
X163805051Y-104107948D01*
X163362052Y-103664949D01*
X162783247Y-103425200D01*
X162156753Y-103425200D01*
X161577948Y-103664949D01*
X161134949Y-104107948D01*
X160975869Y-104492000D01*
X160510027Y-104492000D01*
X160459999Y-104482049D01*
X160409971Y-104492000D01*
X160409968Y-104492000D01*
X160261788Y-104521475D01*
X160219846Y-104549500D01*
X156236640Y-104549500D01*
X156225615Y-104494073D01*
X156158248Y-104393252D01*
X156057427Y-104325885D01*
X155938500Y-104302229D01*
X155809240Y-104302229D01*
X155809240Y-103960751D01*
X155900680Y-103960751D01*
X156019607Y-103937095D01*
X156120428Y-103869728D01*
X156187795Y-103768907D01*
X156211451Y-103649980D01*
X156211451Y-102451100D01*
X156187795Y-102332173D01*
X156120428Y-102231352D01*
X156019607Y-102163985D01*
X155900680Y-102140329D01*
X154701800Y-102140329D01*
X154582873Y-102163985D01*
X154482052Y-102231352D01*
X154414685Y-102332173D01*
X154391029Y-102451100D01*
X154391029Y-103649980D01*
X154414685Y-103768907D01*
X154482052Y-103869728D01*
X154582873Y-103937095D01*
X154701800Y-103960751D01*
X154793240Y-103960751D01*
X154793241Y-104302229D01*
X154541500Y-104302229D01*
X154422573Y-104325885D01*
X154321752Y-104393252D01*
X154254385Y-104494073D01*
X154243360Y-104549500D01*
X154172527Y-104549500D01*
X154122499Y-104539549D01*
X154072471Y-104549500D01*
X154072468Y-104549500D01*
X153924288Y-104578975D01*
X153798667Y-104662912D01*
X153798665Y-104662914D01*
X153756253Y-104691253D01*
X153727914Y-104733665D01*
X152979580Y-105482000D01*
X152882271Y-105482000D01*
X152882271Y-104910500D01*
X152858615Y-104791573D01*
X152791248Y-104690752D01*
X152690427Y-104623385D01*
X152571500Y-104599729D01*
X152508000Y-104599729D01*
X152508000Y-104401807D01*
X152517951Y-104351779D01*
X152508000Y-104301751D01*
X152508000Y-104301748D01*
X152478525Y-104153568D01*
X152444616Y-104102820D01*
X152394588Y-104027947D01*
X152394586Y-104027945D01*
X152366247Y-103985533D01*
X152323835Y-103957194D01*
X152309224Y-103942583D01*
X152400560Y-103960751D01*
X153599440Y-103960751D01*
X153718367Y-103937095D01*
X153819188Y-103869728D01*
X153886555Y-103768907D01*
X153910211Y-103649980D01*
X153910211Y-102451100D01*
X153886555Y-102332173D01*
X153819188Y-102231352D01*
X153718367Y-102163985D01*
X153599440Y-102140329D01*
X153508000Y-102140329D01*
X153508000Y-101110027D01*
X153517951Y-101059999D01*
X153508000Y-101009971D01*
X153508000Y-101009968D01*
X153478525Y-100861788D01*
X153454278Y-100825500D01*
X153394588Y-100736167D01*
X153394586Y-100736165D01*
X153366247Y-100693753D01*
X153323835Y-100665414D01*
X152265174Y-99606753D01*
X160895200Y-99606753D01*
X160895200Y-100233247D01*
X161134949Y-100812052D01*
X161577948Y-101255051D01*
X162156753Y-101494800D01*
X162783247Y-101494800D01*
X163362052Y-101255051D01*
X163805051Y-100812052D01*
X164044800Y-100233247D01*
X164044800Y-99606753D01*
X163805051Y-99027948D01*
X163362052Y-98584949D01*
X162783247Y-98345200D01*
X162156753Y-98345200D01*
X161577948Y-98584949D01*
X161134949Y-99027948D01*
X160895200Y-99606753D01*
X152265174Y-99606753D01*
X151132087Y-98473667D01*
X151103747Y-98431253D01*
X150935712Y-98318975D01*
X150787532Y-98289500D01*
X150787528Y-98289500D01*
X150737500Y-98279549D01*
X150687472Y-98289500D01*
X149246640Y-98289500D01*
X149235615Y-98234073D01*
X149168248Y-98133252D01*
X149067427Y-98065885D01*
X148948500Y-98042229D01*
X147551500Y-98042229D01*
X147432573Y-98065885D01*
X147331752Y-98133252D01*
X147264385Y-98234073D01*
X147253360Y-98289500D01*
X146257921Y-98289500D01*
X145591326Y-97622905D01*
X146030459Y-97804800D01*
X146549541Y-97804800D01*
X147029110Y-97606156D01*
X147396156Y-97239110D01*
X147594800Y-96759541D01*
X147594800Y-96350020D01*
X150889639Y-96350020D01*
X150889639Y-97548900D01*
X150913295Y-97667827D01*
X150980662Y-97768648D01*
X151081483Y-97836015D01*
X151200410Y-97859671D01*
X154799590Y-97859671D01*
X154918517Y-97836015D01*
X155019338Y-97768648D01*
X155086705Y-97667827D01*
X155110361Y-97548900D01*
X155110361Y-96350020D01*
X155086705Y-96231093D01*
X155019338Y-96130272D01*
X154918517Y-96062905D01*
X154799590Y-96039249D01*
X151200410Y-96039249D01*
X151081483Y-96062905D01*
X150980662Y-96130272D01*
X150913295Y-96231093D01*
X150889639Y-96350020D01*
X147594800Y-96350020D01*
X147594800Y-96240459D01*
X147396156Y-95760890D01*
X147029110Y-95393844D01*
X146608931Y-95219800D01*
X167170200Y-95219800D01*
X167170201Y-112518400D01*
X153600000Y-112518400D01*
X153561119Y-112526134D01*
X153528158Y-112548158D01*
X153506134Y-112581119D01*
X153498400Y-112620000D01*
X153498400Y-114780200D01*
X129829800Y-114780200D01*
X129829800Y-95219800D01*
X140080724Y-95219800D01*
X139990252Y-95280252D01*
X139990252Y-95280252D01*
G37*
X139990252Y-95280252D02*
X139922885Y-95381073D01*
X139899229Y-95500000D01*
X139899229Y-95992000D01*
X137610028Y-95992000D01*
X137560000Y-95982049D01*
X137509972Y-95992000D01*
X137509968Y-95992000D01*
X137361788Y-96021475D01*
X137236167Y-96105412D01*
X137236165Y-96105414D01*
X137193753Y-96133753D01*
X137165414Y-96176165D01*
X136849580Y-96492000D01*
X133140027Y-96492000D01*
X133089999Y-96482049D01*
X133039971Y-96492000D01*
X133039968Y-96492000D01*
X132891788Y-96521475D01*
X132766167Y-96605412D01*
X132766165Y-96605414D01*
X132723753Y-96633753D01*
X132695414Y-96676165D01*
X131716168Y-97655412D01*
X131673753Y-97683753D01*
X131561475Y-97851789D01*
X131532000Y-97999969D01*
X131532000Y-97999972D01*
X131522049Y-98050000D01*
X131532000Y-98100028D01*
X131532001Y-111899967D01*
X131522049Y-111950000D01*
X131561475Y-112148211D01*
X131645412Y-112273832D01*
X131645415Y-112273835D01*
X131673754Y-112316247D01*
X131716166Y-112344586D01*
X132505414Y-113133835D01*
X132533753Y-113176247D01*
X132576165Y-113204586D01*
X132576167Y-113204588D01*
X132641286Y-113248098D01*
X132701788Y-113288525D01*
X132849968Y-113318000D01*
X132849972Y-113318000D01*
X132900000Y-113327951D01*
X132950028Y-113318000D01*
X136937472Y-113318000D01*
X136987500Y-113327951D01*
X137037528Y-113318000D01*
X137037532Y-113318000D01*
X137171258Y-113291400D01*
X137547500Y-113291400D01*
X137547500Y-113697524D01*
X137586169Y-113790880D01*
X137657621Y-113862331D01*
X137750976Y-113901000D01*
X138411100Y-113901000D01*
X138474600Y-113837500D01*
X138474600Y-113227900D01*
X138525400Y-113227900D01*
X138525400Y-113837500D01*
X138588900Y-113901000D01*
X139249024Y-113901000D01*
X139342379Y-113862331D01*
X139413831Y-113790880D01*
X139452500Y-113697524D01*
X139452500Y-113291400D01*
X139389000Y-113227900D01*
X138525400Y-113227900D01*
X138474600Y-113227900D01*
X137611000Y-113227900D01*
X137547500Y-113291400D01*
X137171258Y-113291400D01*
X137185712Y-113288525D01*
X137353747Y-113176247D01*
X137382088Y-113133832D01*
X137547500Y-112968420D01*
X137547500Y-113113600D01*
X137611000Y-113177100D01*
X138474600Y-113177100D01*
X138474600Y-112567500D01*
X138525400Y-112567500D01*
X138525400Y-113177100D01*
X139389000Y-113177100D01*
X139452500Y-113113600D01*
X139452500Y-112850900D01*
X145424500Y-112850900D01*
X145424500Y-113130024D01*
X145463169Y-113223380D01*
X145534621Y-113294831D01*
X145627976Y-113333500D01*
X146161100Y-113333500D01*
X146224600Y-113270000D01*
X146224600Y-112787400D01*
X146275400Y-112787400D01*
X146275400Y-113270000D01*
X146338900Y-113333500D01*
X146872024Y-113333500D01*
X146965379Y-113294831D01*
X147036831Y-113223380D01*
X147075500Y-113130024D01*
X147075500Y-112850900D01*
X147012000Y-112787400D01*
X146275400Y-112787400D01*
X146224600Y-112787400D01*
X145488000Y-112787400D01*
X145424500Y-112850900D01*
X139452500Y-112850900D01*
X139452500Y-112707476D01*
X139413831Y-112614120D01*
X139342379Y-112542669D01*
X139249024Y-112504000D01*
X138588900Y-112504000D01*
X138525400Y-112567500D01*
X138474600Y-112567500D01*
X138411100Y-112504000D01*
X138011920Y-112504000D01*
X138121944Y-112393976D01*
X145424500Y-112393976D01*
X145424500Y-112673100D01*
X145488000Y-112736600D01*
X146224600Y-112736600D01*
X146224600Y-112254000D01*
X146275400Y-112254000D01*
X146275400Y-112736600D01*
X147012000Y-112736600D01*
X147075500Y-112673100D01*
X147075500Y-112393976D01*
X147036831Y-112300620D01*
X146965379Y-112229169D01*
X146872024Y-112190500D01*
X146338900Y-112190500D01*
X146275400Y-112254000D01*
X146224600Y-112254000D01*
X146161100Y-112190500D01*
X145627976Y-112190500D01*
X145534621Y-112229169D01*
X145463169Y-112300620D01*
X145424500Y-112393976D01*
X138121944Y-112393976D01*
X138463150Y-112052771D01*
X139198500Y-112052771D01*
X139317427Y-112029115D01*
X139418248Y-111961748D01*
X139485615Y-111860927D01*
X139496640Y-111805500D01*
X145504027Y-111805500D01*
X145559573Y-111842615D01*
X145678500Y-111866271D01*
X146821500Y-111866271D01*
X146940427Y-111842615D01*
X147027416Y-111784490D01*
X147110693Y-111840135D01*
X147229620Y-111863791D01*
X148230380Y-111863791D01*
X148349307Y-111840135D01*
X148450128Y-111772768D01*
X148517495Y-111671947D01*
X148541151Y-111553020D01*
X148541151Y-110851980D01*
X149458849Y-110851980D01*
X149458849Y-111553020D01*
X149482505Y-111671947D01*
X149549872Y-111772768D01*
X149650693Y-111840135D01*
X149769620Y-111863791D01*
X149780650Y-111863791D01*
X149781304Y-111867079D01*
X149791475Y-111918211D01*
X149865579Y-112029115D01*
X149903753Y-112086247D01*
X149946167Y-112114588D01*
X150136496Y-112304917D01*
X150133385Y-112309573D01*
X150109729Y-112428500D01*
X150109729Y-113571500D01*
X150133385Y-113690427D01*
X150200752Y-113791248D01*
X150301573Y-113858615D01*
X150420500Y-113882271D01*
X151055500Y-113882271D01*
X151174427Y-113858615D01*
X151275248Y-113791248D01*
X151342615Y-113690427D01*
X151366271Y-113571500D01*
X151366271Y-112428500D01*
X151633729Y-112428500D01*
X151633729Y-113571500D01*
X151657385Y-113690427D01*
X151724752Y-113791248D01*
X151825573Y-113858615D01*
X151944500Y-113882271D01*
X152579500Y-113882271D01*
X152698427Y-113858615D01*
X152799248Y-113791248D01*
X152866615Y-113690427D01*
X152890271Y-113571500D01*
X152890271Y-112428500D01*
X152866615Y-112309573D01*
X152799248Y-112208752D01*
X152770000Y-112189209D01*
X152770000Y-112075420D01*
X152811449Y-112033971D01*
X153318200Y-112033971D01*
X153437127Y-112010315D01*
X153537948Y-111942948D01*
X153605315Y-111842127D01*
X153628971Y-111723200D01*
X153628971Y-111354900D01*
X153927800Y-111354900D01*
X153927800Y-111773724D01*
X153966469Y-111867079D01*
X154037920Y-111938531D01*
X154131276Y-111977200D01*
X154550100Y-111977200D01*
X154613600Y-111913700D01*
X154613600Y-111291400D01*
X154664400Y-111291400D01*
X154664400Y-111913700D01*
X154727900Y-111977200D01*
X155146724Y-111977200D01*
X155240080Y-111938531D01*
X155311531Y-111867079D01*
X155350200Y-111773724D01*
X155350200Y-111354900D01*
X155286700Y-111291400D01*
X154664400Y-111291400D01*
X154613600Y-111291400D01*
X153991300Y-111291400D01*
X153927800Y-111354900D01*
X153628971Y-111354900D01*
X153628971Y-110808800D01*
X153618922Y-110758276D01*
X153927800Y-110758276D01*
X153927800Y-111177100D01*
X153991300Y-111240600D01*
X154613600Y-111240600D01*
X154613600Y-110618300D01*
X154664400Y-110618300D01*
X154664400Y-111240600D01*
X155286700Y-111240600D01*
X155350200Y-111177100D01*
X155350200Y-110758276D01*
X155311531Y-110664921D01*
X155240080Y-110593469D01*
X155146724Y-110554800D01*
X154727900Y-110554800D01*
X154664400Y-110618300D01*
X154613600Y-110618300D01*
X154550100Y-110554800D01*
X154131276Y-110554800D01*
X154037920Y-110593469D01*
X153966469Y-110664921D01*
X153927800Y-110758276D01*
X153618922Y-110758276D01*
X153605315Y-110689873D01*
X153537948Y-110589052D01*
X153437127Y-110521685D01*
X153318200Y-110498029D01*
X152403800Y-110498029D01*
X152284873Y-110521685D01*
X152184052Y-110589052D01*
X152116685Y-110689873D01*
X152093029Y-110808800D01*
X152093029Y-111315551D01*
X151938166Y-111470414D01*
X151895754Y-111498753D01*
X151867415Y-111541165D01*
X151867412Y-111541168D01*
X151783475Y-111666789D01*
X151744049Y-111865000D01*
X151754001Y-111915032D01*
X151754001Y-112189208D01*
X151724752Y-112208752D01*
X151657385Y-112309573D01*
X151633729Y-112428500D01*
X151366271Y-112428500D01*
X151342615Y-112309573D01*
X151275248Y-112208752D01*
X151254571Y-112194936D01*
X151255951Y-112188000D01*
X151246000Y-112137972D01*
X151246000Y-112137968D01*
X151216525Y-111989788D01*
X151197789Y-111961748D01*
X151132588Y-111864167D01*
X151132586Y-111864165D01*
X151104247Y-111821753D01*
X151061835Y-111793414D01*
X151010580Y-111742159D01*
X151057495Y-111671947D01*
X151081151Y-111553020D01*
X151081151Y-110851980D01*
X151057495Y-110733053D01*
X151016083Y-110671076D01*
X151024380Y-110651044D01*
X151024380Y-110338900D01*
X150960880Y-110275400D01*
X150295400Y-110275400D01*
X150295400Y-110295400D01*
X150244600Y-110295400D01*
X150244600Y-110275400D01*
X149579120Y-110275400D01*
X149515620Y-110338900D01*
X149515620Y-110651044D01*
X149523917Y-110671076D01*
X149482505Y-110733053D01*
X149458849Y-110851980D01*
X148541151Y-110851980D01*
X148524268Y-110767102D01*
X148570028Y-110758000D01*
X148570032Y-110758000D01*
X148718212Y-110728525D01*
X148886247Y-110616247D01*
X148914588Y-110573832D01*
X149515620Y-109972800D01*
X149515620Y-110161100D01*
X149579120Y-110224600D01*
X150244600Y-110224600D01*
X150244600Y-110204600D01*
X150295400Y-110204600D01*
X150295400Y-110224600D01*
X150960880Y-110224600D01*
X151016580Y-110168900D01*
X160946000Y-110168900D01*
X160946000Y-111400524D01*
X160984669Y-111493880D01*
X161056121Y-111565331D01*
X161149476Y-111604000D01*
X162381100Y-111604000D01*
X162444600Y-111540500D01*
X162444600Y-110105400D01*
X162495400Y-110105400D01*
X162495400Y-111540500D01*
X162558900Y-111604000D01*
X163790524Y-111604000D01*
X163883879Y-111565331D01*
X163955331Y-111493880D01*
X163994000Y-111400524D01*
X163994000Y-110168900D01*
X163930500Y-110105400D01*
X162495400Y-110105400D01*
X162444600Y-110105400D01*
X161009500Y-110105400D01*
X160946000Y-110168900D01*
X151016580Y-110168900D01*
X151024380Y-110161100D01*
X151024380Y-109848956D01*
X151016083Y-109828924D01*
X151057495Y-109766947D01*
X151081151Y-109648020D01*
X151081151Y-108946980D01*
X151057495Y-108828053D01*
X150990128Y-108727232D01*
X150889307Y-108659865D01*
X150770380Y-108636209D01*
X149769620Y-108636209D01*
X149650693Y-108659865D01*
X149549872Y-108727232D01*
X149509939Y-108786996D01*
X149472499Y-108779549D01*
X149422471Y-108789500D01*
X149422468Y-108789500D01*
X149274288Y-108818975D01*
X149106253Y-108931253D01*
X149077912Y-108973668D01*
X148541151Y-109510429D01*
X148541151Y-108946980D01*
X148517495Y-108828053D01*
X148450128Y-108727232D01*
X148349307Y-108659865D01*
X148238000Y-108637725D01*
X148238000Y-108440420D01*
X148323832Y-108354588D01*
X148366247Y-108326247D01*
X148478525Y-108158212D01*
X148508000Y-108010032D01*
X148508000Y-108010028D01*
X148517951Y-107960000D01*
X148508000Y-107909972D01*
X148508000Y-107390271D01*
X148571500Y-107390271D01*
X148690427Y-107366615D01*
X148791248Y-107299248D01*
X148810791Y-107270000D01*
X149189209Y-107270000D01*
X149208752Y-107299248D01*
X149309573Y-107366615D01*
X149428500Y-107390271D01*
X150571500Y-107390271D01*
X150690427Y-107366615D01*
X150791248Y-107299248D01*
X150858615Y-107198427D01*
X150882271Y-107079500D01*
X150882271Y-106484534D01*
X150949968Y-106498000D01*
X150949972Y-106498000D01*
X151000000Y-106507951D01*
X151050028Y-106498000D01*
X151117729Y-106498000D01*
X151117729Y-107069500D01*
X151141385Y-107188427D01*
X151208752Y-107289248D01*
X151309573Y-107356615D01*
X151428500Y-107380271D01*
X151492001Y-107380271D01*
X151492001Y-107433968D01*
X151482049Y-107484000D01*
X151521475Y-107682211D01*
X151605412Y-107807832D01*
X151605415Y-107807835D01*
X151633754Y-107850247D01*
X151676166Y-107878586D01*
X152982029Y-109184450D01*
X152982029Y-109691200D01*
X153005685Y-109810127D01*
X153073052Y-109910948D01*
X153173873Y-109978315D01*
X153292800Y-110001971D01*
X154207200Y-110001971D01*
X154326127Y-109978315D01*
X154426948Y-109910948D01*
X154494315Y-109810127D01*
X154517971Y-109691200D01*
X154517971Y-108776800D01*
X154514526Y-108759476D01*
X160946000Y-108759476D01*
X160946000Y-109991100D01*
X161009500Y-110054600D01*
X162444600Y-110054600D01*
X162444600Y-108619500D01*
X162495400Y-108619500D01*
X162495400Y-110054600D01*
X163930500Y-110054600D01*
X163994000Y-109991100D01*
X163994000Y-108759476D01*
X163955331Y-108666120D01*
X163883879Y-108594669D01*
X163790524Y-108556000D01*
X162558900Y-108556000D01*
X162495400Y-108619500D01*
X162444600Y-108619500D01*
X162381100Y-108556000D01*
X161149476Y-108556000D01*
X161056121Y-108594669D01*
X160984669Y-108666120D01*
X160946000Y-108759476D01*
X154514526Y-108759476D01*
X154494315Y-108657873D01*
X154426948Y-108557052D01*
X154326127Y-108489685D01*
X154207200Y-108466029D01*
X153700450Y-108466029D01*
X152607525Y-107373105D01*
X152690427Y-107356615D01*
X152791248Y-107289248D01*
X152858615Y-107188427D01*
X152882271Y-107069500D01*
X152882271Y-107051400D01*
X154287500Y-107051400D01*
X154287500Y-107457524D01*
X154326169Y-107550880D01*
X154397621Y-107622331D01*
X154490976Y-107661000D01*
X155151100Y-107661000D01*
X155214600Y-107597500D01*
X155214600Y-106987900D01*
X155265400Y-106987900D01*
X155265400Y-107597500D01*
X155328900Y-107661000D01*
X155989024Y-107661000D01*
X156082379Y-107622331D01*
X156153831Y-107550880D01*
X156192500Y-107457524D01*
X156192500Y-107051400D01*
X156129000Y-106987900D01*
X155265400Y-106987900D01*
X155214600Y-106987900D01*
X154351000Y-106987900D01*
X154287500Y-107051400D01*
X152882271Y-107051400D01*
X152882271Y-106498000D01*
X153139972Y-106498000D01*
X153190000Y-106507951D01*
X153240028Y-106498000D01*
X153240032Y-106498000D01*
X153388212Y-106468525D01*
X153389781Y-106467476D01*
X154287500Y-106467476D01*
X154287500Y-106873600D01*
X154351000Y-106937100D01*
X155214600Y-106937100D01*
X155214600Y-106327500D01*
X155265400Y-106327500D01*
X155265400Y-106937100D01*
X156129000Y-106937100D01*
X156192500Y-106873600D01*
X156192500Y-106467476D01*
X156153831Y-106374120D01*
X156082379Y-106302669D01*
X155989024Y-106264000D01*
X155328900Y-106264000D01*
X155265400Y-106327500D01*
X155214600Y-106327500D01*
X155151100Y-106264000D01*
X154490976Y-106264000D01*
X154397621Y-106302669D01*
X154326169Y-106374120D01*
X154287500Y-106467476D01*
X153389781Y-106467476D01*
X153556247Y-106356247D01*
X153584588Y-106313832D01*
X154263641Y-105634780D01*
X154321752Y-105721748D01*
X154422573Y-105789115D01*
X154541500Y-105812771D01*
X155938500Y-105812771D01*
X156057427Y-105789115D01*
X156158248Y-105721748D01*
X156225615Y-105620927D01*
X156236640Y-105565500D01*
X160352472Y-105565500D01*
X160402500Y-105575451D01*
X160452528Y-105565500D01*
X160452532Y-105565500D01*
X160600712Y-105536025D01*
X160642654Y-105508000D01*
X160975869Y-105508000D01*
X161134949Y-105892052D01*
X161577948Y-106335051D01*
X162156753Y-106574800D01*
X162783247Y-106574800D01*
X163362052Y-106335051D01*
X163805051Y-105892052D01*
X164044800Y-105313247D01*
X164044800Y-104686753D01*
X163805051Y-104107948D01*
X163362052Y-103664949D01*
X162783247Y-103425200D01*
X162156753Y-103425200D01*
X161577948Y-103664949D01*
X161134949Y-104107948D01*
X160975869Y-104492000D01*
X160510027Y-104492000D01*
X160459999Y-104482049D01*
X160409971Y-104492000D01*
X160409968Y-104492000D01*
X160261788Y-104521475D01*
X160219846Y-104549500D01*
X156236640Y-104549500D01*
X156225615Y-104494073D01*
X156158248Y-104393252D01*
X156057427Y-104325885D01*
X155938500Y-104302229D01*
X155809240Y-104302229D01*
X155809240Y-103960751D01*
X155900680Y-103960751D01*
X156019607Y-103937095D01*
X156120428Y-103869728D01*
X156187795Y-103768907D01*
X156211451Y-103649980D01*
X156211451Y-102451100D01*
X156187795Y-102332173D01*
X156120428Y-102231352D01*
X156019607Y-102163985D01*
X155900680Y-102140329D01*
X154701800Y-102140329D01*
X154582873Y-102163985D01*
X154482052Y-102231352D01*
X154414685Y-102332173D01*
X154391029Y-102451100D01*
X154391029Y-103649980D01*
X154414685Y-103768907D01*
X154482052Y-103869728D01*
X154582873Y-103937095D01*
X154701800Y-103960751D01*
X154793240Y-103960751D01*
X154793241Y-104302229D01*
X154541500Y-104302229D01*
X154422573Y-104325885D01*
X154321752Y-104393252D01*
X154254385Y-104494073D01*
X154243360Y-104549500D01*
X154172527Y-104549500D01*
X154122499Y-104539549D01*
X154072471Y-104549500D01*
X154072468Y-104549500D01*
X153924288Y-104578975D01*
X153798667Y-104662912D01*
X153798665Y-104662914D01*
X153756253Y-104691253D01*
X153727914Y-104733665D01*
X152979580Y-105482000D01*
X152882271Y-105482000D01*
X152882271Y-104910500D01*
X152858615Y-104791573D01*
X152791248Y-104690752D01*
X152690427Y-104623385D01*
X152571500Y-104599729D01*
X152508000Y-104599729D01*
X152508000Y-104401807D01*
X152517951Y-104351779D01*
X152508000Y-104301751D01*
X152508000Y-104301748D01*
X152478525Y-104153568D01*
X152444616Y-104102820D01*
X152394588Y-104027947D01*
X152394586Y-104027945D01*
X152366247Y-103985533D01*
X152323835Y-103957194D01*
X152309224Y-103942583D01*
X152400560Y-103960751D01*
X153599440Y-103960751D01*
X153718367Y-103937095D01*
X153819188Y-103869728D01*
X153886555Y-103768907D01*
X153910211Y-103649980D01*
X153910211Y-102451100D01*
X153886555Y-102332173D01*
X153819188Y-102231352D01*
X153718367Y-102163985D01*
X153599440Y-102140329D01*
X153508000Y-102140329D01*
X153508000Y-101110027D01*
X153517951Y-101059999D01*
X153508000Y-101009971D01*
X153508000Y-101009968D01*
X153478525Y-100861788D01*
X153454278Y-100825500D01*
X153394588Y-100736167D01*
X153394586Y-100736165D01*
X153366247Y-100693753D01*
X153323835Y-100665414D01*
X152265174Y-99606753D01*
X160895200Y-99606753D01*
X160895200Y-100233247D01*
X161134949Y-100812052D01*
X161577948Y-101255051D01*
X162156753Y-101494800D01*
X162783247Y-101494800D01*
X163362052Y-101255051D01*
X163805051Y-100812052D01*
X164044800Y-100233247D01*
X164044800Y-99606753D01*
X163805051Y-99027948D01*
X163362052Y-98584949D01*
X162783247Y-98345200D01*
X162156753Y-98345200D01*
X161577948Y-98584949D01*
X161134949Y-99027948D01*
X160895200Y-99606753D01*
X152265174Y-99606753D01*
X151132087Y-98473667D01*
X151103747Y-98431253D01*
X150935712Y-98318975D01*
X150787532Y-98289500D01*
X150787528Y-98289500D01*
X150737500Y-98279549D01*
X150687472Y-98289500D01*
X149246640Y-98289500D01*
X149235615Y-98234073D01*
X149168248Y-98133252D01*
X149067427Y-98065885D01*
X148948500Y-98042229D01*
X147551500Y-98042229D01*
X147432573Y-98065885D01*
X147331752Y-98133252D01*
X147264385Y-98234073D01*
X147253360Y-98289500D01*
X146257921Y-98289500D01*
X145591326Y-97622905D01*
X146030459Y-97804800D01*
X146549541Y-97804800D01*
X147029110Y-97606156D01*
X147396156Y-97239110D01*
X147594800Y-96759541D01*
X147594800Y-96350020D01*
X150889639Y-96350020D01*
X150889639Y-97548900D01*
X150913295Y-97667827D01*
X150980662Y-97768648D01*
X151081483Y-97836015D01*
X151200410Y-97859671D01*
X154799590Y-97859671D01*
X154918517Y-97836015D01*
X155019338Y-97768648D01*
X155086705Y-97667827D01*
X155110361Y-97548900D01*
X155110361Y-96350020D01*
X155086705Y-96231093D01*
X155019338Y-96130272D01*
X154918517Y-96062905D01*
X154799590Y-96039249D01*
X151200410Y-96039249D01*
X151081483Y-96062905D01*
X150980662Y-96130272D01*
X150913295Y-96231093D01*
X150889639Y-96350020D01*
X147594800Y-96350020D01*
X147594800Y-96240459D01*
X147396156Y-95760890D01*
X147029110Y-95393844D01*
X146608931Y-95219800D01*
X167170200Y-95219800D01*
X167170201Y-112518400D01*
X153600000Y-112518400D01*
X153561119Y-112526134D01*
X153528158Y-112548158D01*
X153506134Y-112581119D01*
X153498400Y-112620000D01*
X153498400Y-114780200D01*
X129829800Y-114780200D01*
X129829800Y-95219800D01*
X140080724Y-95219800D01*
X139990252Y-95280252D01*
G36*
X147264385Y-99360927D02*
X147331752Y-99461748D01*
X147432573Y-99529115D01*
X147551500Y-99552771D01*
X148948500Y-99552771D01*
X149067427Y-99529115D01*
X149168248Y-99461748D01*
X149235615Y-99360927D01*
X149246640Y-99305500D01*
X150527080Y-99305500D01*
X152492001Y-101270422D01*
X152492000Y-102140329D01*
X152400560Y-102140329D01*
X152281633Y-102163985D01*
X152180812Y-102231352D01*
X152113445Y-102332173D01*
X152089789Y-102451100D01*
X152089789Y-103649980D01*
X152107957Y-103741316D01*
X151608971Y-103242331D01*
X151608971Y-102451100D01*
X151585315Y-102332173D01*
X151517948Y-102231352D01*
X151417127Y-102163985D01*
X151298200Y-102140329D01*
X150099320Y-102140329D01*
X149980393Y-102163985D01*
X149879572Y-102231352D01*
X149812205Y-102332173D01*
X149788549Y-102451100D01*
X149788549Y-103649980D01*
X149812205Y-103768907D01*
X149879572Y-103869728D01*
X149980393Y-103937095D01*
X150099320Y-103960751D01*
X150890551Y-103960751D01*
X151492001Y-104562202D01*
X151492001Y-104599729D01*
X151428500Y-104599729D01*
X151309573Y-104623385D01*
X151208752Y-104690752D01*
X151141385Y-104791573D01*
X151117729Y-104910500D01*
X151117729Y-105389309D01*
X150882271Y-105153851D01*
X150882271Y-104920500D01*
X150858615Y-104801573D01*
X150791248Y-104700752D01*
X150690427Y-104633385D01*
X150571500Y-104609729D01*
X149428500Y-104609729D01*
X149309573Y-104633385D01*
X149208752Y-104700752D01*
X149141385Y-104801573D01*
X149117729Y-104920500D01*
X149117729Y-105555500D01*
X149141385Y-105674427D01*
X149208752Y-105775248D01*
X149309573Y-105842615D01*
X149428500Y-105866271D01*
X150157851Y-105866271D01*
X150425309Y-106133729D01*
X149428500Y-106133729D01*
X149309573Y-106157385D01*
X149208752Y-106224752D01*
X149189209Y-106254000D01*
X148810791Y-106254000D01*
X148791248Y-106224752D01*
X148690427Y-106157385D01*
X148571500Y-106133729D01*
X147428500Y-106133729D01*
X147309573Y-106157385D01*
X147208752Y-106224752D01*
X147141385Y-106325573D01*
X147117729Y-106444500D01*
X147117729Y-107079500D01*
X147141385Y-107198427D01*
X147208752Y-107299248D01*
X147309573Y-107366615D01*
X147428500Y-107390271D01*
X147492001Y-107390271D01*
X147492001Y-107749579D01*
X147406168Y-107835412D01*
X147363753Y-107863753D01*
X147251475Y-108031789D01*
X147222000Y-108179969D01*
X147222000Y-108179972D01*
X147212049Y-108230000D01*
X147222000Y-108280028D01*
X147222000Y-108637725D01*
X147110693Y-108659865D01*
X147009872Y-108727232D01*
X146942505Y-108828053D01*
X146918849Y-108946980D01*
X146918849Y-109330429D01*
X146758000Y-109169580D01*
X146758000Y-105326900D01*
X147174500Y-105326900D01*
X147174500Y-105606024D01*
X147213169Y-105699380D01*
X147284621Y-105770831D01*
X147377976Y-105809500D01*
X147911100Y-105809500D01*
X147974600Y-105746000D01*
X147974600Y-105263400D01*
X148025400Y-105263400D01*
X148025400Y-105746000D01*
X148088900Y-105809500D01*
X148622024Y-105809500D01*
X148715379Y-105770831D01*
X148786831Y-105699380D01*
X148825500Y-105606024D01*
X148825500Y-105326900D01*
X148762000Y-105263400D01*
X148025400Y-105263400D01*
X147974600Y-105263400D01*
X147238000Y-105263400D01*
X147174500Y-105326900D01*
X146758000Y-105326900D01*
X146758000Y-104980420D01*
X146868444Y-104869976D01*
X147174500Y-104869976D01*
X147174500Y-105149100D01*
X147238000Y-105212600D01*
X147974600Y-105212600D01*
X147974600Y-104730000D01*
X148025400Y-104730000D01*
X148025400Y-105212600D01*
X148762000Y-105212600D01*
X148825500Y-105149100D01*
X148825500Y-104869976D01*
X148786831Y-104776620D01*
X148715379Y-104705169D01*
X148622024Y-104666500D01*
X148088900Y-104666500D01*
X148025400Y-104730000D01*
X147974600Y-104730000D01*
X147911100Y-104666500D01*
X147377976Y-104666500D01*
X147284621Y-104705169D01*
X147213169Y-104776620D01*
X147174500Y-104869976D01*
X146868444Y-104869976D01*
X148063835Y-103674586D01*
X148106247Y-103646247D01*
X148134586Y-103603835D01*
X148134588Y-103603833D01*
X148218525Y-103478212D01*
X148230743Y-103416787D01*
X148248000Y-103330032D01*
X148248000Y-103330029D01*
X148257951Y-103280001D01*
X148248000Y-103229973D01*
X148248000Y-101990028D01*
X148257951Y-101940000D01*
X148248000Y-101889972D01*
X148248000Y-101889968D01*
X148218525Y-101741788D01*
X148176284Y-101678570D01*
X148134588Y-101616167D01*
X148134586Y-101616165D01*
X148106247Y-101573753D01*
X148063835Y-101545414D01*
X147919421Y-101401000D01*
X148161100Y-101401000D01*
X148224600Y-101337500D01*
X148224600Y-100727900D01*
X148275400Y-100727900D01*
X148275400Y-101337500D01*
X148338900Y-101401000D01*
X148999024Y-101401000D01*
X149092379Y-101362331D01*
X149163831Y-101290880D01*
X149202500Y-101197524D01*
X149202500Y-100791400D01*
X149139000Y-100727900D01*
X148275400Y-100727900D01*
X148224600Y-100727900D01*
X147361000Y-100727900D01*
X147297500Y-100791400D01*
X147297500Y-101006524D01*
X147269972Y-101012000D01*
X146949968Y-101012000D01*
X146801788Y-101041475D01*
X146633753Y-101153753D01*
X146599170Y-101205509D01*
X146567003Y-101227003D01*
X146544330Y-101260935D01*
X146505080Y-101300185D01*
X146450000Y-101289229D01*
X145450000Y-101289229D01*
X145331073Y-101312885D01*
X145230252Y-101380252D01*
X145162885Y-101481073D01*
X145139229Y-101600000D01*
X145139229Y-101900000D01*
X145162885Y-102018927D01*
X145196000Y-102068487D01*
X145196000Y-102161100D01*
X145259500Y-102224600D01*
X145924600Y-102224600D01*
X145924600Y-102210771D01*
X145975400Y-102210771D01*
X145975400Y-102224600D01*
X146640500Y-102224600D01*
X146704000Y-102161100D01*
X146704000Y-102149642D01*
X146788569Y-102132820D01*
X146922997Y-102042997D01*
X146935006Y-102025024D01*
X146949968Y-102028000D01*
X147109580Y-102028000D01*
X147232000Y-102150421D01*
X147232001Y-103069578D01*
X145926168Y-104375412D01*
X145883753Y-104403753D01*
X145771475Y-104571789D01*
X145742000Y-104719969D01*
X145742000Y-104719972D01*
X145732049Y-104770000D01*
X145742000Y-104820028D01*
X145742001Y-109329967D01*
X145732049Y-109380000D01*
X145771475Y-109578211D01*
X145855412Y-109703832D01*
X145855415Y-109703835D01*
X145883754Y-109746247D01*
X145926166Y-109774586D01*
X146725414Y-110573835D01*
X146749398Y-110609729D01*
X145678500Y-110609729D01*
X145559573Y-110633385D01*
X145458752Y-110700752D01*
X145399452Y-110789500D01*
X139496640Y-110789500D01*
X139485615Y-110734073D01*
X139418248Y-110633252D01*
X139317427Y-110565885D01*
X139198500Y-110542229D01*
X137801500Y-110542229D01*
X137682573Y-110565885D01*
X137581752Y-110633252D01*
X137514385Y-110734073D01*
X137503360Y-110789500D01*
X137412527Y-110789500D01*
X137362499Y-110779549D01*
X137312471Y-110789500D01*
X137312468Y-110789500D01*
X137177167Y-110816413D01*
X137103768Y-110639213D01*
X136750787Y-110286232D01*
X136289595Y-110095200D01*
X135790405Y-110095200D01*
X135329213Y-110286232D01*
X134976232Y-110639213D01*
X134892235Y-110842000D01*
X134647765Y-110842000D01*
X134563768Y-110639213D01*
X134210787Y-110286232D01*
X133749595Y-110095200D01*
X133250405Y-110095200D01*
X132789213Y-110286232D01*
X132548000Y-110527445D01*
X132548000Y-109650899D01*
X132695022Y-109650899D01*
X132799145Y-109817856D01*
X133238185Y-110009343D01*
X133717082Y-110018241D01*
X134162932Y-109843195D01*
X134200855Y-109817856D01*
X134304978Y-109650899D01*
X135235022Y-109650899D01*
X135339145Y-109817856D01*
X135778185Y-110009343D01*
X136257082Y-110018241D01*
X136702932Y-109843195D01*
X136740855Y-109817856D01*
X136844978Y-109650899D01*
X136040000Y-108845921D01*
X135235022Y-109650899D01*
X134304978Y-109650899D01*
X133500000Y-108845921D01*
X132695022Y-109650899D01*
X132548000Y-109650899D01*
X132548000Y-109545690D01*
X132659101Y-109614978D01*
X133464079Y-108810000D01*
X133535921Y-108810000D01*
X134340899Y-109614978D01*
X134507856Y-109510855D01*
X134699343Y-109071815D01*
X134700174Y-109027082D01*
X134831759Y-109027082D01*
X135006805Y-109472932D01*
X135032144Y-109510855D01*
X135199101Y-109614978D01*
X136004079Y-108810000D01*
X135199101Y-108005022D01*
X135032144Y-108109145D01*
X134840657Y-108548185D01*
X134831759Y-109027082D01*
X134700174Y-109027082D01*
X134708241Y-108592918D01*
X134533195Y-108147068D01*
X134507856Y-108109145D01*
X134340899Y-108005022D01*
X133535921Y-108810000D01*
X133464079Y-108810000D01*
X132659101Y-108005022D01*
X132548000Y-108074310D01*
X132548000Y-107969101D01*
X132695022Y-107969101D01*
X133500000Y-108774079D01*
X134304978Y-107969101D01*
X134200855Y-107802144D01*
X133761815Y-107610657D01*
X133282918Y-107601759D01*
X132837068Y-107776805D01*
X132799145Y-107802144D01*
X132695022Y-107969101D01*
X132548000Y-107969101D01*
X132548000Y-107092555D01*
X132789213Y-107333768D01*
X133250405Y-107524800D01*
X133749595Y-107524800D01*
X134210787Y-107333768D01*
X134418746Y-107125809D01*
X134439708Y-107157180D01*
X134477004Y-107212997D01*
X134510932Y-107235668D01*
X135074332Y-107799068D01*
X135097003Y-107832997D01*
X135231431Y-107922820D01*
X135260304Y-107928563D01*
X135235022Y-107969101D01*
X136040000Y-108774079D01*
X136054143Y-108759937D01*
X136090064Y-108795858D01*
X136075921Y-108810000D01*
X136880899Y-109614978D01*
X137047856Y-109510855D01*
X137239343Y-109071815D01*
X137248241Y-108592918D01*
X137073195Y-108147068D01*
X137047856Y-108109145D01*
X136880901Y-108005023D01*
X136924590Y-107961334D01*
X136909656Y-107946400D01*
X142669982Y-107946400D01*
X142710000Y-107954360D01*
X142750018Y-107946400D01*
X142750023Y-107946400D01*
X142868569Y-107922820D01*
X143002997Y-107832997D01*
X143025670Y-107799065D01*
X144521069Y-106303667D01*
X144554997Y-106280997D01*
X144644820Y-106146569D01*
X144668400Y-106028023D01*
X144668400Y-106028019D01*
X144676360Y-105988001D01*
X144668400Y-105947983D01*
X144668400Y-105864588D01*
X144698427Y-105858615D01*
X144799248Y-105791248D01*
X144866615Y-105690427D01*
X144890271Y-105571500D01*
X144890271Y-104428500D01*
X144866615Y-104309573D01*
X144799248Y-104208752D01*
X144698427Y-104141385D01*
X144694193Y-104140543D01*
X145178336Y-103656400D01*
X145285105Y-103656400D01*
X145331073Y-103687115D01*
X145450000Y-103710771D01*
X146450000Y-103710771D01*
X146568927Y-103687115D01*
X146669748Y-103619748D01*
X146737115Y-103518927D01*
X146760771Y-103400000D01*
X146760771Y-103100000D01*
X146740880Y-103000000D01*
X146760771Y-102900000D01*
X146760771Y-102600000D01*
X146737115Y-102481073D01*
X146704000Y-102431513D01*
X146704000Y-102338900D01*
X146640500Y-102275400D01*
X145975400Y-102275400D01*
X145975400Y-102289229D01*
X145924600Y-102289229D01*
X145924600Y-102275400D01*
X145259500Y-102275400D01*
X145214818Y-102320082D01*
X145126400Y-102231665D01*
X145126400Y-101458335D01*
X145702465Y-100882271D01*
X146079500Y-100882271D01*
X146198427Y-100858615D01*
X146299248Y-100791248D01*
X146366615Y-100690427D01*
X146390271Y-100571500D01*
X146390271Y-100207476D01*
X147297500Y-100207476D01*
X147297500Y-100613600D01*
X147361000Y-100677100D01*
X148224600Y-100677100D01*
X148224600Y-100067500D01*
X148275400Y-100067500D01*
X148275400Y-100677100D01*
X149139000Y-100677100D01*
X149202500Y-100613600D01*
X149202500Y-100207476D01*
X149163831Y-100114120D01*
X149092379Y-100042669D01*
X148999024Y-100004000D01*
X148338900Y-100004000D01*
X148275400Y-100067500D01*
X148224600Y-100067500D01*
X148161100Y-100004000D01*
X147500976Y-100004000D01*
X147407621Y-100042669D01*
X147336169Y-100114120D01*
X147297500Y-100207476D01*
X146390271Y-100207476D01*
X146390271Y-99428500D01*
X146366615Y-99309573D01*
X146363893Y-99305500D01*
X147253360Y-99305500D01*
X147264385Y-99360927D01*
X147264385Y-99360927D01*
G37*
X147264385Y-99360927D02*
X147331752Y-99461748D01*
X147432573Y-99529115D01*
X147551500Y-99552771D01*
X148948500Y-99552771D01*
X149067427Y-99529115D01*
X149168248Y-99461748D01*
X149235615Y-99360927D01*
X149246640Y-99305500D01*
X150527080Y-99305500D01*
X152492001Y-101270422D01*
X152492000Y-102140329D01*
X152400560Y-102140329D01*
X152281633Y-102163985D01*
X152180812Y-102231352D01*
X152113445Y-102332173D01*
X152089789Y-102451100D01*
X152089789Y-103649980D01*
X152107957Y-103741316D01*
X151608971Y-103242331D01*
X151608971Y-102451100D01*
X151585315Y-102332173D01*
X151517948Y-102231352D01*
X151417127Y-102163985D01*
X151298200Y-102140329D01*
X150099320Y-102140329D01*
X149980393Y-102163985D01*
X149879572Y-102231352D01*
X149812205Y-102332173D01*
X149788549Y-102451100D01*
X149788549Y-103649980D01*
X149812205Y-103768907D01*
X149879572Y-103869728D01*
X149980393Y-103937095D01*
X150099320Y-103960751D01*
X150890551Y-103960751D01*
X151492001Y-104562202D01*
X151492001Y-104599729D01*
X151428500Y-104599729D01*
X151309573Y-104623385D01*
X151208752Y-104690752D01*
X151141385Y-104791573D01*
X151117729Y-104910500D01*
X151117729Y-105389309D01*
X150882271Y-105153851D01*
X150882271Y-104920500D01*
X150858615Y-104801573D01*
X150791248Y-104700752D01*
X150690427Y-104633385D01*
X150571500Y-104609729D01*
X149428500Y-104609729D01*
X149309573Y-104633385D01*
X149208752Y-104700752D01*
X149141385Y-104801573D01*
X149117729Y-104920500D01*
X149117729Y-105555500D01*
X149141385Y-105674427D01*
X149208752Y-105775248D01*
X149309573Y-105842615D01*
X149428500Y-105866271D01*
X150157851Y-105866271D01*
X150425309Y-106133729D01*
X149428500Y-106133729D01*
X149309573Y-106157385D01*
X149208752Y-106224752D01*
X149189209Y-106254000D01*
X148810791Y-106254000D01*
X148791248Y-106224752D01*
X148690427Y-106157385D01*
X148571500Y-106133729D01*
X147428500Y-106133729D01*
X147309573Y-106157385D01*
X147208752Y-106224752D01*
X147141385Y-106325573D01*
X147117729Y-106444500D01*
X147117729Y-107079500D01*
X147141385Y-107198427D01*
X147208752Y-107299248D01*
X147309573Y-107366615D01*
X147428500Y-107390271D01*
X147492001Y-107390271D01*
X147492001Y-107749579D01*
X147406168Y-107835412D01*
X147363753Y-107863753D01*
X147251475Y-108031789D01*
X147222000Y-108179969D01*
X147222000Y-108179972D01*
X147212049Y-108230000D01*
X147222000Y-108280028D01*
X147222000Y-108637725D01*
X147110693Y-108659865D01*
X147009872Y-108727232D01*
X146942505Y-108828053D01*
X146918849Y-108946980D01*
X146918849Y-109330429D01*
X146758000Y-109169580D01*
X146758000Y-105326900D01*
X147174500Y-105326900D01*
X147174500Y-105606024D01*
X147213169Y-105699380D01*
X147284621Y-105770831D01*
X147377976Y-105809500D01*
X147911100Y-105809500D01*
X147974600Y-105746000D01*
X147974600Y-105263400D01*
X148025400Y-105263400D01*
X148025400Y-105746000D01*
X148088900Y-105809500D01*
X148622024Y-105809500D01*
X148715379Y-105770831D01*
X148786831Y-105699380D01*
X148825500Y-105606024D01*
X148825500Y-105326900D01*
X148762000Y-105263400D01*
X148025400Y-105263400D01*
X147974600Y-105263400D01*
X147238000Y-105263400D01*
X147174500Y-105326900D01*
X146758000Y-105326900D01*
X146758000Y-104980420D01*
X146868444Y-104869976D01*
X147174500Y-104869976D01*
X147174500Y-105149100D01*
X147238000Y-105212600D01*
X147974600Y-105212600D01*
X147974600Y-104730000D01*
X148025400Y-104730000D01*
X148025400Y-105212600D01*
X148762000Y-105212600D01*
X148825500Y-105149100D01*
X148825500Y-104869976D01*
X148786831Y-104776620D01*
X148715379Y-104705169D01*
X148622024Y-104666500D01*
X148088900Y-104666500D01*
X148025400Y-104730000D01*
X147974600Y-104730000D01*
X147911100Y-104666500D01*
X147377976Y-104666500D01*
X147284621Y-104705169D01*
X147213169Y-104776620D01*
X147174500Y-104869976D01*
X146868444Y-104869976D01*
X148063835Y-103674586D01*
X148106247Y-103646247D01*
X148134586Y-103603835D01*
X148134588Y-103603833D01*
X148218525Y-103478212D01*
X148230743Y-103416787D01*
X148248000Y-103330032D01*
X148248000Y-103330029D01*
X148257951Y-103280001D01*
X148248000Y-103229973D01*
X148248000Y-101990028D01*
X148257951Y-101940000D01*
X148248000Y-101889972D01*
X148248000Y-101889968D01*
X148218525Y-101741788D01*
X148176284Y-101678570D01*
X148134588Y-101616167D01*
X148134586Y-101616165D01*
X148106247Y-101573753D01*
X148063835Y-101545414D01*
X147919421Y-101401000D01*
X148161100Y-101401000D01*
X148224600Y-101337500D01*
X148224600Y-100727900D01*
X148275400Y-100727900D01*
X148275400Y-101337500D01*
X148338900Y-101401000D01*
X148999024Y-101401000D01*
X149092379Y-101362331D01*
X149163831Y-101290880D01*
X149202500Y-101197524D01*
X149202500Y-100791400D01*
X149139000Y-100727900D01*
X148275400Y-100727900D01*
X148224600Y-100727900D01*
X147361000Y-100727900D01*
X147297500Y-100791400D01*
X147297500Y-101006524D01*
X147269972Y-101012000D01*
X146949968Y-101012000D01*
X146801788Y-101041475D01*
X146633753Y-101153753D01*
X146599170Y-101205509D01*
X146567003Y-101227003D01*
X146544330Y-101260935D01*
X146505080Y-101300185D01*
X146450000Y-101289229D01*
X145450000Y-101289229D01*
X145331073Y-101312885D01*
X145230252Y-101380252D01*
X145162885Y-101481073D01*
X145139229Y-101600000D01*
X145139229Y-101900000D01*
X145162885Y-102018927D01*
X145196000Y-102068487D01*
X145196000Y-102161100D01*
X145259500Y-102224600D01*
X145924600Y-102224600D01*
X145924600Y-102210771D01*
X145975400Y-102210771D01*
X145975400Y-102224600D01*
X146640500Y-102224600D01*
X146704000Y-102161100D01*
X146704000Y-102149642D01*
X146788569Y-102132820D01*
X146922997Y-102042997D01*
X146935006Y-102025024D01*
X146949968Y-102028000D01*
X147109580Y-102028000D01*
X147232000Y-102150421D01*
X147232001Y-103069578D01*
X145926168Y-104375412D01*
X145883753Y-104403753D01*
X145771475Y-104571789D01*
X145742000Y-104719969D01*
X145742000Y-104719972D01*
X145732049Y-104770000D01*
X145742000Y-104820028D01*
X145742001Y-109329967D01*
X145732049Y-109380000D01*
X145771475Y-109578211D01*
X145855412Y-109703832D01*
X145855415Y-109703835D01*
X145883754Y-109746247D01*
X145926166Y-109774586D01*
X146725414Y-110573835D01*
X146749398Y-110609729D01*
X145678500Y-110609729D01*
X145559573Y-110633385D01*
X145458752Y-110700752D01*
X145399452Y-110789500D01*
X139496640Y-110789500D01*
X139485615Y-110734073D01*
X139418248Y-110633252D01*
X139317427Y-110565885D01*
X139198500Y-110542229D01*
X137801500Y-110542229D01*
X137682573Y-110565885D01*
X137581752Y-110633252D01*
X137514385Y-110734073D01*
X137503360Y-110789500D01*
X137412527Y-110789500D01*
X137362499Y-110779549D01*
X137312471Y-110789500D01*
X137312468Y-110789500D01*
X137177167Y-110816413D01*
X137103768Y-110639213D01*
X136750787Y-110286232D01*
X136289595Y-110095200D01*
X135790405Y-110095200D01*
X135329213Y-110286232D01*
X134976232Y-110639213D01*
X134892235Y-110842000D01*
X134647765Y-110842000D01*
X134563768Y-110639213D01*
X134210787Y-110286232D01*
X133749595Y-110095200D01*
X133250405Y-110095200D01*
X132789213Y-110286232D01*
X132548000Y-110527445D01*
X132548000Y-109650899D01*
X132695022Y-109650899D01*
X132799145Y-109817856D01*
X133238185Y-110009343D01*
X133717082Y-110018241D01*
X134162932Y-109843195D01*
X134200855Y-109817856D01*
X134304978Y-109650899D01*
X135235022Y-109650899D01*
X135339145Y-109817856D01*
X135778185Y-110009343D01*
X136257082Y-110018241D01*
X136702932Y-109843195D01*
X136740855Y-109817856D01*
X136844978Y-109650899D01*
X136040000Y-108845921D01*
X135235022Y-109650899D01*
X134304978Y-109650899D01*
X133500000Y-108845921D01*
X132695022Y-109650899D01*
X132548000Y-109650899D01*
X132548000Y-109545690D01*
X132659101Y-109614978D01*
X133464079Y-108810000D01*
X133535921Y-108810000D01*
X134340899Y-109614978D01*
X134507856Y-109510855D01*
X134699343Y-109071815D01*
X134700174Y-109027082D01*
X134831759Y-109027082D01*
X135006805Y-109472932D01*
X135032144Y-109510855D01*
X135199101Y-109614978D01*
X136004079Y-108810000D01*
X135199101Y-108005022D01*
X135032144Y-108109145D01*
X134840657Y-108548185D01*
X134831759Y-109027082D01*
X134700174Y-109027082D01*
X134708241Y-108592918D01*
X134533195Y-108147068D01*
X134507856Y-108109145D01*
X134340899Y-108005022D01*
X133535921Y-108810000D01*
X133464079Y-108810000D01*
X132659101Y-108005022D01*
X132548000Y-108074310D01*
X132548000Y-107969101D01*
X132695022Y-107969101D01*
X133500000Y-108774079D01*
X134304978Y-107969101D01*
X134200855Y-107802144D01*
X133761815Y-107610657D01*
X133282918Y-107601759D01*
X132837068Y-107776805D01*
X132799145Y-107802144D01*
X132695022Y-107969101D01*
X132548000Y-107969101D01*
X132548000Y-107092555D01*
X132789213Y-107333768D01*
X133250405Y-107524800D01*
X133749595Y-107524800D01*
X134210787Y-107333768D01*
X134418746Y-107125809D01*
X134439708Y-107157180D01*
X134477004Y-107212997D01*
X134510932Y-107235668D01*
X135074332Y-107799068D01*
X135097003Y-107832997D01*
X135231431Y-107922820D01*
X135260304Y-107928563D01*
X135235022Y-107969101D01*
X136040000Y-108774079D01*
X136054143Y-108759937D01*
X136090064Y-108795858D01*
X136075921Y-108810000D01*
X136880899Y-109614978D01*
X137047856Y-109510855D01*
X137239343Y-109071815D01*
X137248241Y-108592918D01*
X137073195Y-108147068D01*
X137047856Y-108109145D01*
X136880901Y-108005023D01*
X136924590Y-107961334D01*
X136909656Y-107946400D01*
X142669982Y-107946400D01*
X142710000Y-107954360D01*
X142750018Y-107946400D01*
X142750023Y-107946400D01*
X142868569Y-107922820D01*
X143002997Y-107832997D01*
X143025670Y-107799065D01*
X144521069Y-106303667D01*
X144554997Y-106280997D01*
X144644820Y-106146569D01*
X144668400Y-106028023D01*
X144668400Y-106028019D01*
X144676360Y-105988001D01*
X144668400Y-105947983D01*
X144668400Y-105864588D01*
X144698427Y-105858615D01*
X144799248Y-105791248D01*
X144866615Y-105690427D01*
X144890271Y-105571500D01*
X144890271Y-104428500D01*
X144866615Y-104309573D01*
X144799248Y-104208752D01*
X144698427Y-104141385D01*
X144694193Y-104140543D01*
X145178336Y-103656400D01*
X145285105Y-103656400D01*
X145331073Y-103687115D01*
X145450000Y-103710771D01*
X146450000Y-103710771D01*
X146568927Y-103687115D01*
X146669748Y-103619748D01*
X146737115Y-103518927D01*
X146760771Y-103400000D01*
X146760771Y-103100000D01*
X146740880Y-103000000D01*
X146760771Y-102900000D01*
X146760771Y-102600000D01*
X146737115Y-102481073D01*
X146704000Y-102431513D01*
X146704000Y-102338900D01*
X146640500Y-102275400D01*
X145975400Y-102275400D01*
X145975400Y-102289229D01*
X145924600Y-102289229D01*
X145924600Y-102275400D01*
X145259500Y-102275400D01*
X145214818Y-102320082D01*
X145126400Y-102231665D01*
X145126400Y-101458335D01*
X145702465Y-100882271D01*
X146079500Y-100882271D01*
X146198427Y-100858615D01*
X146299248Y-100791248D01*
X146366615Y-100690427D01*
X146390271Y-100571500D01*
X146390271Y-100207476D01*
X147297500Y-100207476D01*
X147297500Y-100613600D01*
X147361000Y-100677100D01*
X148224600Y-100677100D01*
X148224600Y-100067500D01*
X148275400Y-100067500D01*
X148275400Y-100677100D01*
X149139000Y-100677100D01*
X149202500Y-100613600D01*
X149202500Y-100207476D01*
X149163831Y-100114120D01*
X149092379Y-100042669D01*
X148999024Y-100004000D01*
X148338900Y-100004000D01*
X148275400Y-100067500D01*
X148224600Y-100067500D01*
X148161100Y-100004000D01*
X147500976Y-100004000D01*
X147407621Y-100042669D01*
X147336169Y-100114120D01*
X147297500Y-100207476D01*
X146390271Y-100207476D01*
X146390271Y-99428500D01*
X146366615Y-99309573D01*
X146363893Y-99305500D01*
X147253360Y-99305500D01*
X147264385Y-99360927D01*
G36*
X141979169Y-99284621D02*
X141940500Y-99377976D01*
X141940500Y-99911100D01*
X142004000Y-99974600D01*
X142486600Y-99974600D01*
X142486600Y-99954600D01*
X142537400Y-99954600D01*
X142537400Y-99974600D01*
X143020000Y-99974600D01*
X143083500Y-99911100D01*
X143083500Y-99377976D01*
X143044831Y-99284621D01*
X143038210Y-99278000D01*
X143059580Y-99278000D01*
X143609729Y-99828150D01*
X143609729Y-100571500D01*
X143633385Y-100690427D01*
X143700752Y-100791248D01*
X143801573Y-100858615D01*
X143920500Y-100882271D01*
X144552994Y-100882271D01*
X144460932Y-100974332D01*
X144427004Y-100997003D01*
X144404333Y-101030932D01*
X144404332Y-101030933D01*
X144337181Y-101131431D01*
X144305640Y-101290000D01*
X144313601Y-101330023D01*
X144313600Y-102359982D01*
X144305640Y-102400000D01*
X144313600Y-102440018D01*
X144313600Y-102440022D01*
X144337180Y-102558568D01*
X144427003Y-102692997D01*
X144460934Y-102715669D01*
X144711101Y-102965836D01*
X144694332Y-102990932D01*
X144002935Y-103682330D01*
X143969003Y-103705003D01*
X143879180Y-103839432D01*
X143855600Y-103957978D01*
X143855600Y-103957982D01*
X143847640Y-103998000D01*
X143855600Y-104038018D01*
X143855600Y-104135412D01*
X143825573Y-104141385D01*
X143724752Y-104208752D01*
X143657385Y-104309573D01*
X143633729Y-104428500D01*
X143633729Y-105571500D01*
X143657385Y-105690427D01*
X143724752Y-105791248D01*
X143820224Y-105855041D01*
X142541665Y-107133600D01*
X136950955Y-107133600D01*
X137103768Y-106980787D01*
X137229849Y-106676400D01*
X139689982Y-106676400D01*
X139730000Y-106684360D01*
X139770018Y-106676400D01*
X139770023Y-106676400D01*
X139888569Y-106652820D01*
X140022997Y-106562997D01*
X140045670Y-106529065D01*
X141485836Y-105088900D01*
X142166500Y-105088900D01*
X142166500Y-105622024D01*
X142205169Y-105715379D01*
X142276620Y-105786831D01*
X142369976Y-105825500D01*
X142649100Y-105825500D01*
X142712600Y-105762000D01*
X142712600Y-105025400D01*
X142763400Y-105025400D01*
X142763400Y-105762000D01*
X142826900Y-105825500D01*
X143106024Y-105825500D01*
X143199380Y-105786831D01*
X143270831Y-105715379D01*
X143309500Y-105622024D01*
X143309500Y-105088900D01*
X143246000Y-105025400D01*
X142763400Y-105025400D01*
X142712600Y-105025400D01*
X142230000Y-105025400D01*
X142166500Y-105088900D01*
X141485836Y-105088900D01*
X142166500Y-104408237D01*
X142166500Y-104911100D01*
X142230000Y-104974600D01*
X142712600Y-104974600D01*
X142712600Y-104238000D01*
X142763400Y-104238000D01*
X142763400Y-104974600D01*
X143246000Y-104974600D01*
X143309500Y-104911100D01*
X143309500Y-104377976D01*
X143270831Y-104284621D01*
X143199380Y-104213169D01*
X143106024Y-104174500D01*
X142826900Y-104174500D01*
X142763400Y-104238000D01*
X142712600Y-104238000D01*
X142649100Y-104174500D01*
X142400237Y-104174500D01*
X142539072Y-104035665D01*
X142572997Y-104012997D01*
X142595666Y-103979071D01*
X142595669Y-103979068D01*
X142662820Y-103878570D01*
X142671719Y-103833828D01*
X142686400Y-103760023D01*
X142686400Y-103760020D01*
X142694360Y-103720000D01*
X142686400Y-103679981D01*
X142686400Y-103100017D01*
X142694360Y-103059999D01*
X142686400Y-103019981D01*
X142686400Y-103019977D01*
X142662820Y-102901431D01*
X142572997Y-102767003D01*
X142539068Y-102744332D01*
X142285669Y-102490934D01*
X142262997Y-102457003D01*
X142128569Y-102367180D01*
X142010023Y-102343600D01*
X142010018Y-102343600D01*
X141970000Y-102335640D01*
X141929982Y-102343600D01*
X141860771Y-102343600D01*
X141860771Y-102100000D01*
X141840880Y-102000000D01*
X141860771Y-101900000D01*
X141860771Y-101600000D01*
X141837115Y-101481073D01*
X141769748Y-101380252D01*
X141668927Y-101312885D01*
X141558000Y-101290820D01*
X141558000Y-101120027D01*
X141567951Y-101069999D01*
X141558000Y-101019969D01*
X141558000Y-101019968D01*
X141528525Y-100871788D01*
X141496000Y-100823111D01*
X141496000Y-100810791D01*
X141525248Y-100791248D01*
X141592615Y-100690427D01*
X141616271Y-100571500D01*
X141616271Y-100088900D01*
X141940500Y-100088900D01*
X141940500Y-100622024D01*
X141979169Y-100715379D01*
X142050620Y-100786831D01*
X142143976Y-100825500D01*
X142423100Y-100825500D01*
X142486600Y-100762000D01*
X142486600Y-100025400D01*
X142537400Y-100025400D01*
X142537400Y-100762000D01*
X142600900Y-100825500D01*
X142880024Y-100825500D01*
X142973380Y-100786831D01*
X143044831Y-100715379D01*
X143083500Y-100622024D01*
X143083500Y-100088900D01*
X143020000Y-100025400D01*
X142537400Y-100025400D01*
X142486600Y-100025400D01*
X142004000Y-100025400D01*
X141940500Y-100088900D01*
X141616271Y-100088900D01*
X141616271Y-99428500D01*
X141592615Y-99309573D01*
X141571518Y-99278000D01*
X141985790Y-99278000D01*
X141979169Y-99284621D01*
X141979169Y-99284621D01*
G37*
X141979169Y-99284621D02*
X141940500Y-99377976D01*
X141940500Y-99911100D01*
X142004000Y-99974600D01*
X142486600Y-99974600D01*
X142486600Y-99954600D01*
X142537400Y-99954600D01*
X142537400Y-99974600D01*
X143020000Y-99974600D01*
X143083500Y-99911100D01*
X143083500Y-99377976D01*
X143044831Y-99284621D01*
X143038210Y-99278000D01*
X143059580Y-99278000D01*
X143609729Y-99828150D01*
X143609729Y-100571500D01*
X143633385Y-100690427D01*
X143700752Y-100791248D01*
X143801573Y-100858615D01*
X143920500Y-100882271D01*
X144552994Y-100882271D01*
X144460932Y-100974332D01*
X144427004Y-100997003D01*
X144404333Y-101030932D01*
X144404332Y-101030933D01*
X144337181Y-101131431D01*
X144305640Y-101290000D01*
X144313601Y-101330023D01*
X144313600Y-102359982D01*
X144305640Y-102400000D01*
X144313600Y-102440018D01*
X144313600Y-102440022D01*
X144337180Y-102558568D01*
X144427003Y-102692997D01*
X144460934Y-102715669D01*
X144711101Y-102965836D01*
X144694332Y-102990932D01*
X144002935Y-103682330D01*
X143969003Y-103705003D01*
X143879180Y-103839432D01*
X143855600Y-103957978D01*
X143855600Y-103957982D01*
X143847640Y-103998000D01*
X143855600Y-104038018D01*
X143855600Y-104135412D01*
X143825573Y-104141385D01*
X143724752Y-104208752D01*
X143657385Y-104309573D01*
X143633729Y-104428500D01*
X143633729Y-105571500D01*
X143657385Y-105690427D01*
X143724752Y-105791248D01*
X143820224Y-105855041D01*
X142541665Y-107133600D01*
X136950955Y-107133600D01*
X137103768Y-106980787D01*
X137229849Y-106676400D01*
X139689982Y-106676400D01*
X139730000Y-106684360D01*
X139770018Y-106676400D01*
X139770023Y-106676400D01*
X139888569Y-106652820D01*
X140022997Y-106562997D01*
X140045670Y-106529065D01*
X141485836Y-105088900D01*
X142166500Y-105088900D01*
X142166500Y-105622024D01*
X142205169Y-105715379D01*
X142276620Y-105786831D01*
X142369976Y-105825500D01*
X142649100Y-105825500D01*
X142712600Y-105762000D01*
X142712600Y-105025400D01*
X142763400Y-105025400D01*
X142763400Y-105762000D01*
X142826900Y-105825500D01*
X143106024Y-105825500D01*
X143199380Y-105786831D01*
X143270831Y-105715379D01*
X143309500Y-105622024D01*
X143309500Y-105088900D01*
X143246000Y-105025400D01*
X142763400Y-105025400D01*
X142712600Y-105025400D01*
X142230000Y-105025400D01*
X142166500Y-105088900D01*
X141485836Y-105088900D01*
X142166500Y-104408237D01*
X142166500Y-104911100D01*
X142230000Y-104974600D01*
X142712600Y-104974600D01*
X142712600Y-104238000D01*
X142763400Y-104238000D01*
X142763400Y-104974600D01*
X143246000Y-104974600D01*
X143309500Y-104911100D01*
X143309500Y-104377976D01*
X143270831Y-104284621D01*
X143199380Y-104213169D01*
X143106024Y-104174500D01*
X142826900Y-104174500D01*
X142763400Y-104238000D01*
X142712600Y-104238000D01*
X142649100Y-104174500D01*
X142400237Y-104174500D01*
X142539072Y-104035665D01*
X142572997Y-104012997D01*
X142595666Y-103979071D01*
X142595669Y-103979068D01*
X142662820Y-103878570D01*
X142671719Y-103833828D01*
X142686400Y-103760023D01*
X142686400Y-103760020D01*
X142694360Y-103720000D01*
X142686400Y-103679981D01*
X142686400Y-103100017D01*
X142694360Y-103059999D01*
X142686400Y-103019981D01*
X142686400Y-103019977D01*
X142662820Y-102901431D01*
X142572997Y-102767003D01*
X142539068Y-102744332D01*
X142285669Y-102490934D01*
X142262997Y-102457003D01*
X142128569Y-102367180D01*
X142010023Y-102343600D01*
X142010018Y-102343600D01*
X141970000Y-102335640D01*
X141929982Y-102343600D01*
X141860771Y-102343600D01*
X141860771Y-102100000D01*
X141840880Y-102000000D01*
X141860771Y-101900000D01*
X141860771Y-101600000D01*
X141837115Y-101481073D01*
X141769748Y-101380252D01*
X141668927Y-101312885D01*
X141558000Y-101290820D01*
X141558000Y-101120027D01*
X141567951Y-101069999D01*
X141558000Y-101019969D01*
X141558000Y-101019968D01*
X141528525Y-100871788D01*
X141496000Y-100823111D01*
X141496000Y-100810791D01*
X141525248Y-100791248D01*
X141592615Y-100690427D01*
X141616271Y-100571500D01*
X141616271Y-100088900D01*
X141940500Y-100088900D01*
X141940500Y-100622024D01*
X141979169Y-100715379D01*
X142050620Y-100786831D01*
X142143976Y-100825500D01*
X142423100Y-100825500D01*
X142486600Y-100762000D01*
X142486600Y-100025400D01*
X142537400Y-100025400D01*
X142537400Y-100762000D01*
X142600900Y-100825500D01*
X142880024Y-100825500D01*
X142973380Y-100786831D01*
X143044831Y-100715379D01*
X143083500Y-100622024D01*
X143083500Y-100088900D01*
X143020000Y-100025400D01*
X142537400Y-100025400D01*
X142486600Y-100025400D01*
X142004000Y-100025400D01*
X141940500Y-100088900D01*
X141616271Y-100088900D01*
X141616271Y-99428500D01*
X141592615Y-99309573D01*
X141571518Y-99278000D01*
X141985790Y-99278000D01*
X141979169Y-99284621D01*
G36*
X134729229Y-99600000D02*
X134752885Y-99718927D01*
X134820252Y-99819748D01*
X134921073Y-99887115D01*
X135040000Y-99910771D01*
X137040000Y-99910771D01*
X137158927Y-99887115D01*
X137259748Y-99819748D01*
X137327115Y-99718927D01*
X137350771Y-99600000D01*
X137350771Y-99145506D01*
X138073601Y-99868337D01*
X138073600Y-100389981D01*
X138065640Y-100430000D01*
X138073600Y-100470018D01*
X138073600Y-100470022D01*
X138097180Y-100588568D01*
X138187003Y-100722997D01*
X138220935Y-100745670D01*
X139984332Y-102509068D01*
X140007003Y-102542997D01*
X140040932Y-102565668D01*
X140141430Y-102632820D01*
X140168184Y-102638141D01*
X140239229Y-102652273D01*
X140239229Y-102784493D01*
X138385670Y-100930935D01*
X138362997Y-100897003D01*
X138228569Y-100807180D01*
X138110023Y-100783600D01*
X138110018Y-100783600D01*
X138070000Y-100775640D01*
X138029982Y-100783600D01*
X137229849Y-100783600D01*
X137103768Y-100479213D01*
X136750787Y-100126232D01*
X136289595Y-99935200D01*
X135790405Y-99935200D01*
X135329213Y-100126232D01*
X134976232Y-100479213D01*
X134785200Y-100940405D01*
X134785200Y-101439595D01*
X134976232Y-101900787D01*
X135329213Y-102253768D01*
X135790405Y-102444800D01*
X136289595Y-102444800D01*
X136750787Y-102253768D01*
X137103768Y-101900787D01*
X137229849Y-101596400D01*
X137901665Y-101596400D01*
X139814332Y-103509068D01*
X139837003Y-103542997D01*
X139870932Y-103565668D01*
X139879557Y-103571431D01*
X139971431Y-103632820D01*
X140089977Y-103656400D01*
X140089982Y-103656400D01*
X140130000Y-103664360D01*
X140170018Y-103656400D01*
X140385105Y-103656400D01*
X140431073Y-103687115D01*
X140550000Y-103710771D01*
X141550000Y-103710771D01*
X141668927Y-103687115D01*
X141769748Y-103619748D01*
X141837115Y-103518927D01*
X141860771Y-103400000D01*
X141860771Y-103215507D01*
X141873601Y-103228336D01*
X141873600Y-103551663D01*
X139561665Y-105863600D01*
X137229849Y-105863600D01*
X137103768Y-105559213D01*
X136750787Y-105206232D01*
X136289595Y-105015200D01*
X135790405Y-105015200D01*
X135329213Y-105206232D01*
X135176400Y-105359045D01*
X135176400Y-105040017D01*
X135184360Y-104999999D01*
X135176400Y-104959981D01*
X135176400Y-104959977D01*
X135152820Y-104841431D01*
X135062997Y-104707003D01*
X135029069Y-104684333D01*
X134628718Y-104283983D01*
X134754800Y-103979595D01*
X134754800Y-103480405D01*
X134785200Y-103480405D01*
X134785200Y-103979595D01*
X134976232Y-104440787D01*
X135329213Y-104793768D01*
X135790405Y-104984800D01*
X136289595Y-104984800D01*
X136750787Y-104793768D01*
X137103768Y-104440787D01*
X137294800Y-103979595D01*
X137294800Y-103480405D01*
X137103768Y-103019213D01*
X136750787Y-102666232D01*
X136289595Y-102475200D01*
X135790405Y-102475200D01*
X135329213Y-102666232D01*
X134976232Y-103019213D01*
X134785200Y-103480405D01*
X134754800Y-103480405D01*
X134563768Y-103019213D01*
X134210787Y-102666232D01*
X133749595Y-102475200D01*
X133250405Y-102475200D01*
X132789213Y-102666232D01*
X132548000Y-102907445D01*
X132548000Y-102012555D01*
X132789213Y-102253768D01*
X133250405Y-102444800D01*
X133749595Y-102444800D01*
X134210787Y-102253768D01*
X134563768Y-101900787D01*
X134754800Y-101439595D01*
X134754800Y-100940405D01*
X134563768Y-100479213D01*
X134210787Y-100126232D01*
X133749595Y-99935200D01*
X133250405Y-99935200D01*
X132789213Y-100126232D01*
X132548000Y-100367445D01*
X132548000Y-99472555D01*
X132789213Y-99713768D01*
X133250405Y-99904800D01*
X133749595Y-99904800D01*
X134210787Y-99713768D01*
X134563768Y-99360787D01*
X134729229Y-98961329D01*
X134729229Y-99600000D01*
X134729229Y-99600000D01*
G37*
X134729229Y-99600000D02*
X134752885Y-99718927D01*
X134820252Y-99819748D01*
X134921073Y-99887115D01*
X135040000Y-99910771D01*
X137040000Y-99910771D01*
X137158927Y-99887115D01*
X137259748Y-99819748D01*
X137327115Y-99718927D01*
X137350771Y-99600000D01*
X137350771Y-99145506D01*
X138073601Y-99868337D01*
X138073600Y-100389981D01*
X138065640Y-100430000D01*
X138073600Y-100470018D01*
X138073600Y-100470022D01*
X138097180Y-100588568D01*
X138187003Y-100722997D01*
X138220935Y-100745670D01*
X139984332Y-102509068D01*
X140007003Y-102542997D01*
X140040932Y-102565668D01*
X140141430Y-102632820D01*
X140168184Y-102638141D01*
X140239229Y-102652273D01*
X140239229Y-102784493D01*
X138385670Y-100930935D01*
X138362997Y-100897003D01*
X138228569Y-100807180D01*
X138110023Y-100783600D01*
X138110018Y-100783600D01*
X138070000Y-100775640D01*
X138029982Y-100783600D01*
X137229849Y-100783600D01*
X137103768Y-100479213D01*
X136750787Y-100126232D01*
X136289595Y-99935200D01*
X135790405Y-99935200D01*
X135329213Y-100126232D01*
X134976232Y-100479213D01*
X134785200Y-100940405D01*
X134785200Y-101439595D01*
X134976232Y-101900787D01*
X135329213Y-102253768D01*
X135790405Y-102444800D01*
X136289595Y-102444800D01*
X136750787Y-102253768D01*
X137103768Y-101900787D01*
X137229849Y-101596400D01*
X137901665Y-101596400D01*
X139814332Y-103509068D01*
X139837003Y-103542997D01*
X139870932Y-103565668D01*
X139879557Y-103571431D01*
X139971431Y-103632820D01*
X140089977Y-103656400D01*
X140089982Y-103656400D01*
X140130000Y-103664360D01*
X140170018Y-103656400D01*
X140385105Y-103656400D01*
X140431073Y-103687115D01*
X140550000Y-103710771D01*
X141550000Y-103710771D01*
X141668927Y-103687115D01*
X141769748Y-103619748D01*
X141837115Y-103518927D01*
X141860771Y-103400000D01*
X141860771Y-103215507D01*
X141873601Y-103228336D01*
X141873600Y-103551663D01*
X139561665Y-105863600D01*
X137229849Y-105863600D01*
X137103768Y-105559213D01*
X136750787Y-105206232D01*
X136289595Y-105015200D01*
X135790405Y-105015200D01*
X135329213Y-105206232D01*
X135176400Y-105359045D01*
X135176400Y-105040017D01*
X135184360Y-104999999D01*
X135176400Y-104959981D01*
X135176400Y-104959977D01*
X135152820Y-104841431D01*
X135062997Y-104707003D01*
X135029069Y-104684333D01*
X134628718Y-104283983D01*
X134754800Y-103979595D01*
X134754800Y-103480405D01*
X134785200Y-103480405D01*
X134785200Y-103979595D01*
X134976232Y-104440787D01*
X135329213Y-104793768D01*
X135790405Y-104984800D01*
X136289595Y-104984800D01*
X136750787Y-104793768D01*
X137103768Y-104440787D01*
X137294800Y-103979595D01*
X137294800Y-103480405D01*
X137103768Y-103019213D01*
X136750787Y-102666232D01*
X136289595Y-102475200D01*
X135790405Y-102475200D01*
X135329213Y-102666232D01*
X134976232Y-103019213D01*
X134785200Y-103480405D01*
X134754800Y-103480405D01*
X134563768Y-103019213D01*
X134210787Y-102666232D01*
X133749595Y-102475200D01*
X133250405Y-102475200D01*
X132789213Y-102666232D01*
X132548000Y-102907445D01*
X132548000Y-102012555D01*
X132789213Y-102253768D01*
X133250405Y-102444800D01*
X133749595Y-102444800D01*
X134210787Y-102253768D01*
X134563768Y-101900787D01*
X134754800Y-101439595D01*
X134754800Y-100940405D01*
X134563768Y-100479213D01*
X134210787Y-100126232D01*
X133749595Y-99935200D01*
X133250405Y-99935200D01*
X132789213Y-100126232D01*
X132548000Y-100367445D01*
X132548000Y-99472555D01*
X132789213Y-99713768D01*
X133250405Y-99904800D01*
X133749595Y-99904800D01*
X134210787Y-99713768D01*
X134563768Y-99360787D01*
X134729229Y-98961329D01*
X134729229Y-99600000D01*
G04 #@! TD*
M02*
