G04 #@! TF.GenerationSoftware,KiCad,Pcbnew,5.0.2*
G04 #@! TF.CreationDate,2020-03-31T15:33:04+02:00*
G04 #@! TF.ProjectId,pmod-dac-ls,706d6f64-2d64-4616-932d-6c732e6b6963,1*
G04 #@! TF.SameCoordinates,Original*
G04 #@! TF.FileFunction,Copper,L2,Bot*
G04 #@! TF.FilePolarity,Positive*
%FSLAX46Y46*%
G04 Gerber Fmt 4.6, Leading zero omitted, Abs format (unit mm)*
G04 Created by KiCad (PCBNEW 5.0.2) date mar. 31 mars 2020 15:33:04 CEST*
%MOMM*%
%LPD*%
G01*
G04 APERTURE LIST*
G04 #@! TA.AperFunction,ComponentPad*
%ADD10C,2.000000*%
G04 #@! TD*
G04 #@! TA.AperFunction,ComponentPad*
%ADD11R,2.000000X2.000000*%
G04 #@! TD*
G04 #@! TA.AperFunction,ComponentPad*
%ADD12R,2.000000X1.900000*%
G04 #@! TD*
G04 #@! TA.AperFunction,ComponentPad*
%ADD13C,1.900000*%
G04 #@! TD*
G04 #@! TA.AperFunction,ComponentPad*
%ADD14R,2.540000X2.540000*%
G04 #@! TD*
G04 #@! TA.AperFunction,ComponentPad*
%ADD15C,2.540000*%
G04 #@! TD*
G04 #@! TA.AperFunction,ViaPad*
%ADD16C,0.711200*%
G04 #@! TD*
G04 #@! TA.AperFunction,Conductor*
%ADD17C,0.406400*%
G04 #@! TD*
G04 #@! TA.AperFunction,Conductor*
%ADD18C,0.152400*%
G04 #@! TD*
G04 APERTURE END LIST*
D10*
G04 #@! TO.P,J1,3*
G04 #@! TO.N,+VExt*
X146290000Y-96500000D03*
G04 #@! TO.P,J1,2*
G04 #@! TO.N,Net-(C5-Pad1)*
X143750000Y-96500000D03*
D11*
G04 #@! TO.P,J1,1*
G04 #@! TO.N,+3.3V*
X141210000Y-96500000D03*
G04 #@! TD*
D12*
G04 #@! TO.P,P1,1*
G04 #@! TO.N,PMOD_CS*
X136040000Y-98650000D03*
D13*
G04 #@! TO.P,P1,2*
G04 #@! TO.N,PMOD_MOSI*
X136040000Y-101190000D03*
G04 #@! TO.P,P1,3*
G04 #@! TO.N,Net-(P1-Pad3)*
X136040000Y-103730000D03*
G04 #@! TO.P,P1,4*
G04 #@! TO.N,PMOD_SCK*
X136040000Y-106270000D03*
G04 #@! TO.P,P1,5*
G04 #@! TO.N,GND*
X136040000Y-108810000D03*
G04 #@! TO.P,P1,6*
G04 #@! TO.N,+3.3V*
X136040000Y-111350000D03*
G04 #@! TO.P,P1,7*
G04 #@! TO.N,Net-(P1-Pad7)*
X133500000Y-98650000D03*
G04 #@! TO.P,P1,8*
G04 #@! TO.N,Net-(P1-Pad8)*
X133500000Y-101190000D03*
G04 #@! TO.P,P1,9*
G04 #@! TO.N,PMOD_GPIO*
X133500000Y-103730000D03*
G04 #@! TO.P,P1,10*
G04 #@! TO.N,Net-(P1-Pad10)*
X133500000Y-106270000D03*
G04 #@! TO.P,P1,11*
G04 #@! TO.N,GND*
X133500000Y-108810000D03*
G04 #@! TO.P,P1,12*
G04 #@! TO.N,+3.3V*
X133500000Y-111350000D03*
G04 #@! TD*
D14*
G04 #@! TO.P,P2,1*
G04 #@! TO.N,GND*
X162470000Y-110080000D03*
D15*
G04 #@! TO.P,P2,3*
G04 #@! TO.N,+VExt*
X162470000Y-99920000D03*
G04 #@! TO.P,P2,2*
G04 #@! TO.N,Net-(C2-Pad1)*
X162470000Y-105000000D03*
G04 #@! TD*
D16*
G04 #@! TO.N,GND*
X156650000Y-106960000D03*
X148000000Y-104250000D03*
X155750000Y-111260000D03*
X151400000Y-110250000D03*
X147000000Y-102250000D03*
X138500000Y-114500000D03*
X142750000Y-106250000D03*
X147500000Y-112760000D03*
X142500000Y-101250000D03*
X137050000Y-102460000D03*
X148500000Y-101750000D03*
G04 #@! TD*
D17*
G04 #@! TO.N,GND*
X162470000Y-110080000D02*
X158240000Y-110080000D01*
X158240000Y-110080000D02*
X158230000Y-110080000D01*
X158230000Y-110080000D02*
X156650000Y-108500000D01*
X156650000Y-108500000D02*
X156650000Y-106960000D01*
X155750000Y-111260000D02*
X157060000Y-111260000D01*
X157060000Y-111260000D02*
X158240000Y-110080000D01*
X151400000Y-110250000D02*
X154740000Y-110250000D01*
X154740000Y-110250000D02*
X155750000Y-111260000D01*
X156650000Y-106960000D02*
X150710000Y-106960000D01*
X150710000Y-106960000D02*
X148000000Y-104250000D01*
X148000000Y-104250000D02*
X148000000Y-103250000D01*
X148000000Y-103250000D02*
X147000000Y-102250000D01*
X142750000Y-106250000D02*
X146000000Y-106250000D01*
X146000000Y-106250000D02*
X148000000Y-104250000D01*
X142750000Y-106250000D02*
X138600000Y-106250000D01*
X138600000Y-106250000D02*
X136040000Y-108810000D01*
X138500000Y-114500000D02*
X138500000Y-111270000D01*
X138500000Y-111270000D02*
X136040000Y-108810000D01*
X151400000Y-110250000D02*
X148870000Y-110250000D01*
X148870000Y-110250000D02*
X147500000Y-111620000D01*
X147500000Y-111620000D02*
X147500000Y-112760000D01*
X147000000Y-102250000D02*
X143500000Y-102250000D01*
X143500000Y-102250000D02*
X142500000Y-101250000D01*
X138600000Y-106250000D02*
X138600000Y-104010000D01*
X138600000Y-104010000D02*
X137050000Y-102460000D01*
X148000000Y-103250000D02*
X148500000Y-102750000D01*
X148500000Y-102750000D02*
X148500000Y-101750000D01*
G04 #@! TO.N,+VExt*
X146290000Y-96500000D02*
X159050000Y-96500000D01*
X159050000Y-96500000D02*
X162470000Y-99920000D01*
G04 #@! TD*
D18*
G04 #@! TO.N,GND*
G36*
X167246401Y-114856400D02*
X129753600Y-114856400D01*
X129753600Y-111115562D01*
X132321400Y-111115562D01*
X132321400Y-111584438D01*
X132500831Y-112017623D01*
X132832377Y-112349169D01*
X133265562Y-112528600D01*
X133734438Y-112528600D01*
X134167623Y-112349169D01*
X134499169Y-112017623D01*
X134678600Y-111584438D01*
X134678600Y-111115562D01*
X134861400Y-111115562D01*
X134861400Y-111584438D01*
X135040831Y-112017623D01*
X135372377Y-112349169D01*
X135805562Y-112528600D01*
X136274438Y-112528600D01*
X136707623Y-112349169D01*
X137039169Y-112017623D01*
X137218600Y-111584438D01*
X137218600Y-111115562D01*
X137039169Y-110682377D01*
X136707623Y-110350831D01*
X136314394Y-110187950D01*
X160971400Y-110187950D01*
X160971400Y-111395471D01*
X161006202Y-111479491D01*
X161070508Y-111543797D01*
X161154528Y-111578600D01*
X162362050Y-111578600D01*
X162419200Y-111521450D01*
X162419200Y-110130800D01*
X162520800Y-110130800D01*
X162520800Y-111521450D01*
X162577950Y-111578600D01*
X163785472Y-111578600D01*
X163869492Y-111543797D01*
X163933798Y-111479491D01*
X163968600Y-111395471D01*
X163968600Y-110187950D01*
X163911450Y-110130800D01*
X162520800Y-110130800D01*
X162419200Y-110130800D01*
X161028550Y-110130800D01*
X160971400Y-110187950D01*
X136314394Y-110187950D01*
X136274438Y-110171400D01*
X135805562Y-110171400D01*
X135372377Y-110350831D01*
X135040831Y-110682377D01*
X134861400Y-111115562D01*
X134678600Y-111115562D01*
X134499169Y-110682377D01*
X134167623Y-110350831D01*
X133734438Y-110171400D01*
X133265562Y-110171400D01*
X132832377Y-110350831D01*
X132500831Y-110682377D01*
X132321400Y-111115562D01*
X129753600Y-111115562D01*
X129753600Y-109654435D01*
X132727407Y-109654435D01*
X132835393Y-109811178D01*
X133269118Y-109989302D01*
X133737992Y-109987888D01*
X134164607Y-109811178D01*
X134272593Y-109654435D01*
X135267407Y-109654435D01*
X135375393Y-109811178D01*
X135809118Y-109989302D01*
X136277992Y-109987888D01*
X136704607Y-109811178D01*
X136812593Y-109654435D01*
X136040000Y-108881842D01*
X135267407Y-109654435D01*
X134272593Y-109654435D01*
X133500000Y-108881842D01*
X132727407Y-109654435D01*
X129753600Y-109654435D01*
X129753600Y-108579118D01*
X132320698Y-108579118D01*
X132322112Y-109047992D01*
X132498822Y-109474607D01*
X132655565Y-109582593D01*
X133428158Y-108810000D01*
X133571842Y-108810000D01*
X134344435Y-109582593D01*
X134501178Y-109474607D01*
X134679302Y-109040882D01*
X134677910Y-108579118D01*
X134860698Y-108579118D01*
X134862112Y-109047992D01*
X135038822Y-109474607D01*
X135195565Y-109582593D01*
X135968158Y-108810000D01*
X136111842Y-108810000D01*
X136884435Y-109582593D01*
X137041178Y-109474607D01*
X137219302Y-109040882D01*
X137218469Y-108764529D01*
X160971400Y-108764529D01*
X160971400Y-109972050D01*
X161028550Y-110029200D01*
X162419200Y-110029200D01*
X162419200Y-108638550D01*
X162520800Y-108638550D01*
X162520800Y-110029200D01*
X163911450Y-110029200D01*
X163968600Y-109972050D01*
X163968600Y-108764529D01*
X163933798Y-108680509D01*
X163869492Y-108616203D01*
X163785472Y-108581400D01*
X162577950Y-108581400D01*
X162520800Y-108638550D01*
X162419200Y-108638550D01*
X162362050Y-108581400D01*
X161154528Y-108581400D01*
X161070508Y-108616203D01*
X161006202Y-108680509D01*
X160971400Y-108764529D01*
X137218469Y-108764529D01*
X137217888Y-108572008D01*
X137041178Y-108145393D01*
X136884435Y-108037407D01*
X136111842Y-108810000D01*
X135968158Y-108810000D01*
X135195565Y-108037407D01*
X135038822Y-108145393D01*
X134860698Y-108579118D01*
X134677910Y-108579118D01*
X134677888Y-108572008D01*
X134501178Y-108145393D01*
X134344435Y-108037407D01*
X133571842Y-108810000D01*
X133428158Y-108810000D01*
X132655565Y-108037407D01*
X132498822Y-108145393D01*
X132320698Y-108579118D01*
X129753600Y-108579118D01*
X129753600Y-107965565D01*
X132727407Y-107965565D01*
X133500000Y-108738158D01*
X134272593Y-107965565D01*
X135267407Y-107965565D01*
X136040000Y-108738158D01*
X136812593Y-107965565D01*
X136704607Y-107808822D01*
X136270882Y-107630698D01*
X135802008Y-107632112D01*
X135375393Y-107808822D01*
X135267407Y-107965565D01*
X134272593Y-107965565D01*
X134164607Y-107808822D01*
X133730882Y-107630698D01*
X133262008Y-107632112D01*
X132835393Y-107808822D01*
X132727407Y-107965565D01*
X129753600Y-107965565D01*
X129753600Y-106035562D01*
X132321400Y-106035562D01*
X132321400Y-106504438D01*
X132500831Y-106937623D01*
X132832377Y-107269169D01*
X133265562Y-107448600D01*
X133734438Y-107448600D01*
X134167623Y-107269169D01*
X134499169Y-106937623D01*
X134678600Y-106504438D01*
X134678600Y-106035562D01*
X134861400Y-106035562D01*
X134861400Y-106504438D01*
X135040831Y-106937623D01*
X135372377Y-107269169D01*
X135805562Y-107448600D01*
X136274438Y-107448600D01*
X136707623Y-107269169D01*
X137039169Y-106937623D01*
X137218600Y-106504438D01*
X137218600Y-106035562D01*
X137039169Y-105602377D01*
X136707623Y-105270831D01*
X136274438Y-105091400D01*
X135805562Y-105091400D01*
X135372377Y-105270831D01*
X135040831Y-105602377D01*
X134861400Y-106035562D01*
X134678600Y-106035562D01*
X134499169Y-105602377D01*
X134167623Y-105270831D01*
X133734438Y-105091400D01*
X133265562Y-105091400D01*
X132832377Y-105270831D01*
X132500831Y-105602377D01*
X132321400Y-106035562D01*
X129753600Y-106035562D01*
X129753600Y-103495562D01*
X132321400Y-103495562D01*
X132321400Y-103964438D01*
X132500831Y-104397623D01*
X132832377Y-104729169D01*
X133265562Y-104908600D01*
X133734438Y-104908600D01*
X134167623Y-104729169D01*
X134499169Y-104397623D01*
X134678600Y-103964438D01*
X134678600Y-103495562D01*
X134861400Y-103495562D01*
X134861400Y-103964438D01*
X135040831Y-104397623D01*
X135372377Y-104729169D01*
X135805562Y-104908600D01*
X136274438Y-104908600D01*
X136707623Y-104729169D01*
X136734882Y-104701910D01*
X160971400Y-104701910D01*
X160971400Y-105298090D01*
X161199549Y-105848889D01*
X161621111Y-106270451D01*
X162171910Y-106498600D01*
X162768090Y-106498600D01*
X163318889Y-106270451D01*
X163740451Y-105848889D01*
X163968600Y-105298090D01*
X163968600Y-104701910D01*
X163740451Y-104151111D01*
X163318889Y-103729549D01*
X162768090Y-103501400D01*
X162171910Y-103501400D01*
X161621111Y-103729549D01*
X161199549Y-104151111D01*
X160971400Y-104701910D01*
X136734882Y-104701910D01*
X137039169Y-104397623D01*
X137218600Y-103964438D01*
X137218600Y-103495562D01*
X137039169Y-103062377D01*
X136707623Y-102730831D01*
X136274438Y-102551400D01*
X135805562Y-102551400D01*
X135372377Y-102730831D01*
X135040831Y-103062377D01*
X134861400Y-103495562D01*
X134678600Y-103495562D01*
X134499169Y-103062377D01*
X134167623Y-102730831D01*
X133734438Y-102551400D01*
X133265562Y-102551400D01*
X132832377Y-102730831D01*
X132500831Y-103062377D01*
X132321400Y-103495562D01*
X129753600Y-103495562D01*
X129753600Y-100955562D01*
X132321400Y-100955562D01*
X132321400Y-101424438D01*
X132500831Y-101857623D01*
X132832377Y-102189169D01*
X133265562Y-102368600D01*
X133734438Y-102368600D01*
X134167623Y-102189169D01*
X134499169Y-101857623D01*
X134678600Y-101424438D01*
X134678600Y-100955562D01*
X134861400Y-100955562D01*
X134861400Y-101424438D01*
X135040831Y-101857623D01*
X135372377Y-102189169D01*
X135805562Y-102368600D01*
X136274438Y-102368600D01*
X136707623Y-102189169D01*
X137039169Y-101857623D01*
X137218600Y-101424438D01*
X137218600Y-100955562D01*
X137039169Y-100522377D01*
X136707623Y-100190831D01*
X136274438Y-100011400D01*
X135805562Y-100011400D01*
X135372377Y-100190831D01*
X135040831Y-100522377D01*
X134861400Y-100955562D01*
X134678600Y-100955562D01*
X134499169Y-100522377D01*
X134167623Y-100190831D01*
X133734438Y-100011400D01*
X133265562Y-100011400D01*
X132832377Y-100190831D01*
X132500831Y-100522377D01*
X132321400Y-100955562D01*
X129753600Y-100955562D01*
X129753600Y-98415562D01*
X132321400Y-98415562D01*
X132321400Y-98884438D01*
X132500831Y-99317623D01*
X132832377Y-99649169D01*
X133265562Y-99828600D01*
X133734438Y-99828600D01*
X134167623Y-99649169D01*
X134499169Y-99317623D01*
X134678600Y-98884438D01*
X134678600Y-98415562D01*
X134499169Y-97982377D01*
X134216792Y-97700000D01*
X134806922Y-97700000D01*
X134806922Y-99600000D01*
X134824664Y-99689195D01*
X134875189Y-99764811D01*
X134950805Y-99815336D01*
X135040000Y-99833078D01*
X137040000Y-99833078D01*
X137129195Y-99815336D01*
X137204811Y-99764811D01*
X137255336Y-99689195D01*
X137273078Y-99600000D01*
X137273078Y-97700000D01*
X137255336Y-97610805D01*
X137204811Y-97535189D01*
X137129195Y-97484664D01*
X137040000Y-97466922D01*
X135040000Y-97466922D01*
X134950805Y-97484664D01*
X134875189Y-97535189D01*
X134824664Y-97610805D01*
X134806922Y-97700000D01*
X134216792Y-97700000D01*
X134167623Y-97650831D01*
X133734438Y-97471400D01*
X133265562Y-97471400D01*
X132832377Y-97650831D01*
X132500831Y-97982377D01*
X132321400Y-98415562D01*
X129753600Y-98415562D01*
X129753600Y-95500000D01*
X139976922Y-95500000D01*
X139976922Y-97500000D01*
X139994664Y-97589195D01*
X140045189Y-97664811D01*
X140120805Y-97715336D01*
X140210000Y-97733078D01*
X142210000Y-97733078D01*
X142299195Y-97715336D01*
X142374811Y-97664811D01*
X142425336Y-97589195D01*
X142443078Y-97500000D01*
X142443078Y-96255616D01*
X142521400Y-96255616D01*
X142521400Y-96744384D01*
X142708443Y-97195946D01*
X143054054Y-97541557D01*
X143505616Y-97728600D01*
X143994384Y-97728600D01*
X144445946Y-97541557D01*
X144791557Y-97195946D01*
X144978600Y-96744384D01*
X144978600Y-96255616D01*
X145061400Y-96255616D01*
X145061400Y-96744384D01*
X145248443Y-97195946D01*
X145594054Y-97541557D01*
X146045616Y-97728600D01*
X146534384Y-97728600D01*
X146985946Y-97541557D01*
X147331557Y-97195946D01*
X147440970Y-96931800D01*
X158871143Y-96931800D01*
X161144164Y-99204821D01*
X160971400Y-99621910D01*
X160971400Y-100218090D01*
X161199549Y-100768889D01*
X161621111Y-101190451D01*
X162171910Y-101418600D01*
X162768090Y-101418600D01*
X163318889Y-101190451D01*
X163740451Y-100768889D01*
X163968600Y-100218090D01*
X163968600Y-99621910D01*
X163740451Y-99071111D01*
X163318889Y-98649549D01*
X162768090Y-98421400D01*
X162171910Y-98421400D01*
X161754821Y-98594164D01*
X159385400Y-96224743D01*
X159361310Y-96188690D01*
X159218480Y-96093254D01*
X159092526Y-96068200D01*
X159092522Y-96068200D01*
X159050000Y-96059742D01*
X159007478Y-96068200D01*
X147440970Y-96068200D01*
X147331557Y-95804054D01*
X146985946Y-95458443D01*
X146534384Y-95271400D01*
X146045616Y-95271400D01*
X145594054Y-95458443D01*
X145248443Y-95804054D01*
X145061400Y-96255616D01*
X144978600Y-96255616D01*
X144791557Y-95804054D01*
X144445946Y-95458443D01*
X143994384Y-95271400D01*
X143505616Y-95271400D01*
X143054054Y-95458443D01*
X142708443Y-95804054D01*
X142521400Y-96255616D01*
X142443078Y-96255616D01*
X142443078Y-95500000D01*
X142425336Y-95410805D01*
X142374811Y-95335189D01*
X142299195Y-95284664D01*
X142210000Y-95266922D01*
X140210000Y-95266922D01*
X140120805Y-95284664D01*
X140045189Y-95335189D01*
X139994664Y-95410805D01*
X139976922Y-95500000D01*
X129753600Y-95500000D01*
X129753600Y-95143600D01*
X167246400Y-95143600D01*
X167246401Y-114856400D01*
X167246401Y-114856400D01*
G37*
X167246401Y-114856400D02*
X129753600Y-114856400D01*
X129753600Y-111115562D01*
X132321400Y-111115562D01*
X132321400Y-111584438D01*
X132500831Y-112017623D01*
X132832377Y-112349169D01*
X133265562Y-112528600D01*
X133734438Y-112528600D01*
X134167623Y-112349169D01*
X134499169Y-112017623D01*
X134678600Y-111584438D01*
X134678600Y-111115562D01*
X134861400Y-111115562D01*
X134861400Y-111584438D01*
X135040831Y-112017623D01*
X135372377Y-112349169D01*
X135805562Y-112528600D01*
X136274438Y-112528600D01*
X136707623Y-112349169D01*
X137039169Y-112017623D01*
X137218600Y-111584438D01*
X137218600Y-111115562D01*
X137039169Y-110682377D01*
X136707623Y-110350831D01*
X136314394Y-110187950D01*
X160971400Y-110187950D01*
X160971400Y-111395471D01*
X161006202Y-111479491D01*
X161070508Y-111543797D01*
X161154528Y-111578600D01*
X162362050Y-111578600D01*
X162419200Y-111521450D01*
X162419200Y-110130800D01*
X162520800Y-110130800D01*
X162520800Y-111521450D01*
X162577950Y-111578600D01*
X163785472Y-111578600D01*
X163869492Y-111543797D01*
X163933798Y-111479491D01*
X163968600Y-111395471D01*
X163968600Y-110187950D01*
X163911450Y-110130800D01*
X162520800Y-110130800D01*
X162419200Y-110130800D01*
X161028550Y-110130800D01*
X160971400Y-110187950D01*
X136314394Y-110187950D01*
X136274438Y-110171400D01*
X135805562Y-110171400D01*
X135372377Y-110350831D01*
X135040831Y-110682377D01*
X134861400Y-111115562D01*
X134678600Y-111115562D01*
X134499169Y-110682377D01*
X134167623Y-110350831D01*
X133734438Y-110171400D01*
X133265562Y-110171400D01*
X132832377Y-110350831D01*
X132500831Y-110682377D01*
X132321400Y-111115562D01*
X129753600Y-111115562D01*
X129753600Y-109654435D01*
X132727407Y-109654435D01*
X132835393Y-109811178D01*
X133269118Y-109989302D01*
X133737992Y-109987888D01*
X134164607Y-109811178D01*
X134272593Y-109654435D01*
X135267407Y-109654435D01*
X135375393Y-109811178D01*
X135809118Y-109989302D01*
X136277992Y-109987888D01*
X136704607Y-109811178D01*
X136812593Y-109654435D01*
X136040000Y-108881842D01*
X135267407Y-109654435D01*
X134272593Y-109654435D01*
X133500000Y-108881842D01*
X132727407Y-109654435D01*
X129753600Y-109654435D01*
X129753600Y-108579118D01*
X132320698Y-108579118D01*
X132322112Y-109047992D01*
X132498822Y-109474607D01*
X132655565Y-109582593D01*
X133428158Y-108810000D01*
X133571842Y-108810000D01*
X134344435Y-109582593D01*
X134501178Y-109474607D01*
X134679302Y-109040882D01*
X134677910Y-108579118D01*
X134860698Y-108579118D01*
X134862112Y-109047992D01*
X135038822Y-109474607D01*
X135195565Y-109582593D01*
X135968158Y-108810000D01*
X136111842Y-108810000D01*
X136884435Y-109582593D01*
X137041178Y-109474607D01*
X137219302Y-109040882D01*
X137218469Y-108764529D01*
X160971400Y-108764529D01*
X160971400Y-109972050D01*
X161028550Y-110029200D01*
X162419200Y-110029200D01*
X162419200Y-108638550D01*
X162520800Y-108638550D01*
X162520800Y-110029200D01*
X163911450Y-110029200D01*
X163968600Y-109972050D01*
X163968600Y-108764529D01*
X163933798Y-108680509D01*
X163869492Y-108616203D01*
X163785472Y-108581400D01*
X162577950Y-108581400D01*
X162520800Y-108638550D01*
X162419200Y-108638550D01*
X162362050Y-108581400D01*
X161154528Y-108581400D01*
X161070508Y-108616203D01*
X161006202Y-108680509D01*
X160971400Y-108764529D01*
X137218469Y-108764529D01*
X137217888Y-108572008D01*
X137041178Y-108145393D01*
X136884435Y-108037407D01*
X136111842Y-108810000D01*
X135968158Y-108810000D01*
X135195565Y-108037407D01*
X135038822Y-108145393D01*
X134860698Y-108579118D01*
X134677910Y-108579118D01*
X134677888Y-108572008D01*
X134501178Y-108145393D01*
X134344435Y-108037407D01*
X133571842Y-108810000D01*
X133428158Y-108810000D01*
X132655565Y-108037407D01*
X132498822Y-108145393D01*
X132320698Y-108579118D01*
X129753600Y-108579118D01*
X129753600Y-107965565D01*
X132727407Y-107965565D01*
X133500000Y-108738158D01*
X134272593Y-107965565D01*
X135267407Y-107965565D01*
X136040000Y-108738158D01*
X136812593Y-107965565D01*
X136704607Y-107808822D01*
X136270882Y-107630698D01*
X135802008Y-107632112D01*
X135375393Y-107808822D01*
X135267407Y-107965565D01*
X134272593Y-107965565D01*
X134164607Y-107808822D01*
X133730882Y-107630698D01*
X133262008Y-107632112D01*
X132835393Y-107808822D01*
X132727407Y-107965565D01*
X129753600Y-107965565D01*
X129753600Y-106035562D01*
X132321400Y-106035562D01*
X132321400Y-106504438D01*
X132500831Y-106937623D01*
X132832377Y-107269169D01*
X133265562Y-107448600D01*
X133734438Y-107448600D01*
X134167623Y-107269169D01*
X134499169Y-106937623D01*
X134678600Y-106504438D01*
X134678600Y-106035562D01*
X134861400Y-106035562D01*
X134861400Y-106504438D01*
X135040831Y-106937623D01*
X135372377Y-107269169D01*
X135805562Y-107448600D01*
X136274438Y-107448600D01*
X136707623Y-107269169D01*
X137039169Y-106937623D01*
X137218600Y-106504438D01*
X137218600Y-106035562D01*
X137039169Y-105602377D01*
X136707623Y-105270831D01*
X136274438Y-105091400D01*
X135805562Y-105091400D01*
X135372377Y-105270831D01*
X135040831Y-105602377D01*
X134861400Y-106035562D01*
X134678600Y-106035562D01*
X134499169Y-105602377D01*
X134167623Y-105270831D01*
X133734438Y-105091400D01*
X133265562Y-105091400D01*
X132832377Y-105270831D01*
X132500831Y-105602377D01*
X132321400Y-106035562D01*
X129753600Y-106035562D01*
X129753600Y-103495562D01*
X132321400Y-103495562D01*
X132321400Y-103964438D01*
X132500831Y-104397623D01*
X132832377Y-104729169D01*
X133265562Y-104908600D01*
X133734438Y-104908600D01*
X134167623Y-104729169D01*
X134499169Y-104397623D01*
X134678600Y-103964438D01*
X134678600Y-103495562D01*
X134861400Y-103495562D01*
X134861400Y-103964438D01*
X135040831Y-104397623D01*
X135372377Y-104729169D01*
X135805562Y-104908600D01*
X136274438Y-104908600D01*
X136707623Y-104729169D01*
X136734882Y-104701910D01*
X160971400Y-104701910D01*
X160971400Y-105298090D01*
X161199549Y-105848889D01*
X161621111Y-106270451D01*
X162171910Y-106498600D01*
X162768090Y-106498600D01*
X163318889Y-106270451D01*
X163740451Y-105848889D01*
X163968600Y-105298090D01*
X163968600Y-104701910D01*
X163740451Y-104151111D01*
X163318889Y-103729549D01*
X162768090Y-103501400D01*
X162171910Y-103501400D01*
X161621111Y-103729549D01*
X161199549Y-104151111D01*
X160971400Y-104701910D01*
X136734882Y-104701910D01*
X137039169Y-104397623D01*
X137218600Y-103964438D01*
X137218600Y-103495562D01*
X137039169Y-103062377D01*
X136707623Y-102730831D01*
X136274438Y-102551400D01*
X135805562Y-102551400D01*
X135372377Y-102730831D01*
X135040831Y-103062377D01*
X134861400Y-103495562D01*
X134678600Y-103495562D01*
X134499169Y-103062377D01*
X134167623Y-102730831D01*
X133734438Y-102551400D01*
X133265562Y-102551400D01*
X132832377Y-102730831D01*
X132500831Y-103062377D01*
X132321400Y-103495562D01*
X129753600Y-103495562D01*
X129753600Y-100955562D01*
X132321400Y-100955562D01*
X132321400Y-101424438D01*
X132500831Y-101857623D01*
X132832377Y-102189169D01*
X133265562Y-102368600D01*
X133734438Y-102368600D01*
X134167623Y-102189169D01*
X134499169Y-101857623D01*
X134678600Y-101424438D01*
X134678600Y-100955562D01*
X134861400Y-100955562D01*
X134861400Y-101424438D01*
X135040831Y-101857623D01*
X135372377Y-102189169D01*
X135805562Y-102368600D01*
X136274438Y-102368600D01*
X136707623Y-102189169D01*
X137039169Y-101857623D01*
X137218600Y-101424438D01*
X137218600Y-100955562D01*
X137039169Y-100522377D01*
X136707623Y-100190831D01*
X136274438Y-100011400D01*
X135805562Y-100011400D01*
X135372377Y-100190831D01*
X135040831Y-100522377D01*
X134861400Y-100955562D01*
X134678600Y-100955562D01*
X134499169Y-100522377D01*
X134167623Y-100190831D01*
X133734438Y-100011400D01*
X133265562Y-100011400D01*
X132832377Y-100190831D01*
X132500831Y-100522377D01*
X132321400Y-100955562D01*
X129753600Y-100955562D01*
X129753600Y-98415562D01*
X132321400Y-98415562D01*
X132321400Y-98884438D01*
X132500831Y-99317623D01*
X132832377Y-99649169D01*
X133265562Y-99828600D01*
X133734438Y-99828600D01*
X134167623Y-99649169D01*
X134499169Y-99317623D01*
X134678600Y-98884438D01*
X134678600Y-98415562D01*
X134499169Y-97982377D01*
X134216792Y-97700000D01*
X134806922Y-97700000D01*
X134806922Y-99600000D01*
X134824664Y-99689195D01*
X134875189Y-99764811D01*
X134950805Y-99815336D01*
X135040000Y-99833078D01*
X137040000Y-99833078D01*
X137129195Y-99815336D01*
X137204811Y-99764811D01*
X137255336Y-99689195D01*
X137273078Y-99600000D01*
X137273078Y-97700000D01*
X137255336Y-97610805D01*
X137204811Y-97535189D01*
X137129195Y-97484664D01*
X137040000Y-97466922D01*
X135040000Y-97466922D01*
X134950805Y-97484664D01*
X134875189Y-97535189D01*
X134824664Y-97610805D01*
X134806922Y-97700000D01*
X134216792Y-97700000D01*
X134167623Y-97650831D01*
X133734438Y-97471400D01*
X133265562Y-97471400D01*
X132832377Y-97650831D01*
X132500831Y-97982377D01*
X132321400Y-98415562D01*
X129753600Y-98415562D01*
X129753600Y-95500000D01*
X139976922Y-95500000D01*
X139976922Y-97500000D01*
X139994664Y-97589195D01*
X140045189Y-97664811D01*
X140120805Y-97715336D01*
X140210000Y-97733078D01*
X142210000Y-97733078D01*
X142299195Y-97715336D01*
X142374811Y-97664811D01*
X142425336Y-97589195D01*
X142443078Y-97500000D01*
X142443078Y-96255616D01*
X142521400Y-96255616D01*
X142521400Y-96744384D01*
X142708443Y-97195946D01*
X143054054Y-97541557D01*
X143505616Y-97728600D01*
X143994384Y-97728600D01*
X144445946Y-97541557D01*
X144791557Y-97195946D01*
X144978600Y-96744384D01*
X144978600Y-96255616D01*
X145061400Y-96255616D01*
X145061400Y-96744384D01*
X145248443Y-97195946D01*
X145594054Y-97541557D01*
X146045616Y-97728600D01*
X146534384Y-97728600D01*
X146985946Y-97541557D01*
X147331557Y-97195946D01*
X147440970Y-96931800D01*
X158871143Y-96931800D01*
X161144164Y-99204821D01*
X160971400Y-99621910D01*
X160971400Y-100218090D01*
X161199549Y-100768889D01*
X161621111Y-101190451D01*
X162171910Y-101418600D01*
X162768090Y-101418600D01*
X163318889Y-101190451D01*
X163740451Y-100768889D01*
X163968600Y-100218090D01*
X163968600Y-99621910D01*
X163740451Y-99071111D01*
X163318889Y-98649549D01*
X162768090Y-98421400D01*
X162171910Y-98421400D01*
X161754821Y-98594164D01*
X159385400Y-96224743D01*
X159361310Y-96188690D01*
X159218480Y-96093254D01*
X159092526Y-96068200D01*
X159092522Y-96068200D01*
X159050000Y-96059742D01*
X159007478Y-96068200D01*
X147440970Y-96068200D01*
X147331557Y-95804054D01*
X146985946Y-95458443D01*
X146534384Y-95271400D01*
X146045616Y-95271400D01*
X145594054Y-95458443D01*
X145248443Y-95804054D01*
X145061400Y-96255616D01*
X144978600Y-96255616D01*
X144791557Y-95804054D01*
X144445946Y-95458443D01*
X143994384Y-95271400D01*
X143505616Y-95271400D01*
X143054054Y-95458443D01*
X142708443Y-95804054D01*
X142521400Y-96255616D01*
X142443078Y-96255616D01*
X142443078Y-95500000D01*
X142425336Y-95410805D01*
X142374811Y-95335189D01*
X142299195Y-95284664D01*
X142210000Y-95266922D01*
X140210000Y-95266922D01*
X140120805Y-95284664D01*
X140045189Y-95335189D01*
X139994664Y-95410805D01*
X139976922Y-95500000D01*
X129753600Y-95500000D01*
X129753600Y-95143600D01*
X167246400Y-95143600D01*
X167246401Y-114856400D01*
G04 #@! TD*
M02*
