G04 #@! TF.GenerationSoftware,KiCad,Pcbnew,5.0.2*
G04 #@! TF.CreationDate,2020-03-31T15:33:04+02:00*
G04 #@! TF.ProjectId,pmod-dac-ls,706d6f64-2d64-4616-932d-6c732e6b6963,1*
G04 #@! TF.SameCoordinates,Original*
G04 #@! TF.FileFunction,Paste,Top*
G04 #@! TF.FilePolarity,Positive*
%FSLAX46Y46*%
G04 Gerber Fmt 4.6, Leading zero omitted, Abs format (unit mm)*
G04 Created by KiCad (PCBNEW 5.0.2) date mar. 31 mars 2020 15:33:04 CEST*
%MOMM*%
%LPD*%
G01*
G04 APERTURE LIST*
%ADD10R,0.635000X1.143000*%
%ADD11R,0.930000X0.230000*%
%ADD12R,1.000760X0.701040*%
%ADD13R,1.198880X1.198880*%
%ADD14R,3.599180X1.198880*%
%ADD15R,1.397000X0.889000*%
%ADD16R,0.914400X0.914400*%
%ADD17R,1.143000X0.635000*%
G04 APERTURE END LIST*
D10*
G04 #@! TO.C,R1*
X144262000Y-105000000D03*
X142738000Y-105000000D03*
G04 #@! TD*
D11*
G04 #@! TO.C,U1*
X141050000Y-101750000D03*
X141050000Y-102250000D03*
X141050000Y-102750000D03*
X141050000Y-103250000D03*
X145950000Y-103250000D03*
X145950000Y-102750000D03*
X145950000Y-102250000D03*
X145950000Y-101750000D03*
G04 #@! TD*
D10*
G04 #@! TO.C,R2*
X152262000Y-113000000D03*
X150738000Y-113000000D03*
G04 #@! TD*
D12*
G04 #@! TO.C,U2*
X147730000Y-111202500D03*
X147730000Y-109297500D03*
X150270000Y-109297500D03*
X150270000Y-110250000D03*
X150270000Y-111202500D03*
G04 #@! TD*
D13*
G04 #@! TO.C,Q2*
X153000000Y-103050540D03*
X150698760Y-103050540D03*
X155301240Y-103050540D03*
D14*
X153000000Y-96949460D03*
G04 #@! TD*
D15*
G04 #@! TO.C,C1*
X138500000Y-111297500D03*
X138500000Y-113202500D03*
G04 #@! TD*
G04 #@! TO.C,C2*
X155240000Y-106962500D03*
X155240000Y-105057500D03*
G04 #@! TD*
D16*
G04 #@! TO.C,Q1*
X154639000Y-111266000D03*
X152861000Y-111266000D03*
X153750000Y-109234000D03*
G04 #@! TD*
D17*
G04 #@! TO.C,R3*
X152000000Y-105228000D03*
X152000000Y-106752000D03*
G04 #@! TD*
G04 #@! TO.C,R4*
X150000000Y-105238000D03*
X150000000Y-106762000D03*
G04 #@! TD*
G04 #@! TO.C,R5*
X148000000Y-106762000D03*
X148000000Y-105238000D03*
G04 #@! TD*
D10*
G04 #@! TO.C,C3*
X140988000Y-100000000D03*
X142512000Y-100000000D03*
G04 #@! TD*
D17*
G04 #@! TO.C,C4*
X146250000Y-112762000D03*
X146250000Y-111238000D03*
G04 #@! TD*
D10*
G04 #@! TO.C,R6*
X144238000Y-100000000D03*
X145762000Y-100000000D03*
G04 #@! TD*
D15*
G04 #@! TO.C,C5*
X148250000Y-98797500D03*
X148250000Y-100702500D03*
G04 #@! TD*
M02*
