G04 #@! TF.GenerationSoftware,KiCad,Pcbnew,5.0.2*
G04 #@! TF.CreationDate,2020-03-31T15:33:04+02:00*
G04 #@! TF.ProjectId,pmod-dac-ls,706d6f64-2d64-4616-932d-6c732e6b6963,1*
G04 #@! TF.SameCoordinates,Original*
G04 #@! TF.FileFunction,Soldermask,Top*
G04 #@! TF.FilePolarity,Negative*
%FSLAX46Y46*%
G04 Gerber Fmt 4.6, Leading zero omitted, Abs format (unit mm)*
G04 Created by KiCad (PCBNEW 5.0.2) date mar. 31 mars 2020 15:33:04 CEST*
%MOMM*%
%LPD*%
G01*
G04 APERTURE LIST*
%ADD10C,0.100000*%
G04 APERTURE END LIST*
D10*
G36*
X139249500Y-113698000D02*
X137750500Y-113698000D01*
X137750500Y-112707000D01*
X139249500Y-112707000D01*
X139249500Y-113698000D01*
X139249500Y-113698000D01*
G37*
G36*
X152630500Y-113622500D02*
X151893500Y-113622500D01*
X151893500Y-112377500D01*
X152630500Y-112377500D01*
X152630500Y-113622500D01*
X152630500Y-113622500D01*
G37*
G36*
X151106500Y-113622500D02*
X150369500Y-113622500D01*
X150369500Y-112377500D01*
X151106500Y-112377500D01*
X151106500Y-113622500D01*
X151106500Y-113622500D01*
G37*
G36*
X146872500Y-113130500D02*
X145627500Y-113130500D01*
X145627500Y-112393500D01*
X146872500Y-112393500D01*
X146872500Y-113130500D01*
X146872500Y-113130500D01*
G37*
G36*
X133791981Y-110387468D02*
X133974150Y-110462925D01*
X134138103Y-110572475D01*
X134277525Y-110711897D01*
X134387075Y-110875850D01*
X134462532Y-111058019D01*
X134501000Y-111251410D01*
X134501000Y-111448590D01*
X134462532Y-111641981D01*
X134387075Y-111824150D01*
X134277525Y-111988103D01*
X134138103Y-112127525D01*
X133974150Y-112237075D01*
X133791981Y-112312532D01*
X133598590Y-112351000D01*
X133401410Y-112351000D01*
X133208019Y-112312532D01*
X133025850Y-112237075D01*
X132861897Y-112127525D01*
X132722475Y-111988103D01*
X132612925Y-111824150D01*
X132537468Y-111641981D01*
X132499000Y-111448590D01*
X132499000Y-111251410D01*
X132537468Y-111058019D01*
X132612925Y-110875850D01*
X132722475Y-110711897D01*
X132861897Y-110572475D01*
X133025850Y-110462925D01*
X133208019Y-110387468D01*
X133401410Y-110349000D01*
X133598590Y-110349000D01*
X133791981Y-110387468D01*
X133791981Y-110387468D01*
G37*
G36*
X136331981Y-110387468D02*
X136514150Y-110462925D01*
X136678103Y-110572475D01*
X136817525Y-110711897D01*
X136927075Y-110875850D01*
X137002532Y-111058019D01*
X137041000Y-111251410D01*
X137041000Y-111448590D01*
X137002532Y-111641981D01*
X136927075Y-111824150D01*
X136817525Y-111988103D01*
X136678103Y-112127525D01*
X136514150Y-112237075D01*
X136331981Y-112312532D01*
X136138590Y-112351000D01*
X135941410Y-112351000D01*
X135748019Y-112312532D01*
X135565850Y-112237075D01*
X135401897Y-112127525D01*
X135262475Y-111988103D01*
X135152925Y-111824150D01*
X135077468Y-111641981D01*
X135039000Y-111448590D01*
X135039000Y-111251410D01*
X135077468Y-111058019D01*
X135152925Y-110875850D01*
X135262475Y-110711897D01*
X135401897Y-110572475D01*
X135565850Y-110462925D01*
X135748019Y-110387468D01*
X135941410Y-110349000D01*
X136138590Y-110349000D01*
X136331981Y-110387468D01*
X136331981Y-110387468D01*
G37*
G36*
X139249500Y-111793000D02*
X137750500Y-111793000D01*
X137750500Y-110802000D01*
X139249500Y-110802000D01*
X139249500Y-111793000D01*
X139249500Y-111793000D01*
G37*
G36*
X155147200Y-111774200D02*
X154130800Y-111774200D01*
X154130800Y-110757800D01*
X155147200Y-110757800D01*
X155147200Y-111774200D01*
X155147200Y-111774200D01*
G37*
G36*
X153369200Y-111774200D02*
X152352800Y-111774200D01*
X152352800Y-110757800D01*
X153369200Y-110757800D01*
X153369200Y-111774200D01*
X153369200Y-111774200D01*
G37*
G36*
X146872500Y-111606500D02*
X145627500Y-111606500D01*
X145627500Y-110869500D01*
X146872500Y-110869500D01*
X146872500Y-111606500D01*
X146872500Y-111606500D01*
G37*
G36*
X148281380Y-111604020D02*
X147178620Y-111604020D01*
X147178620Y-110800980D01*
X148281380Y-110800980D01*
X148281380Y-111604020D01*
X148281380Y-111604020D01*
G37*
G36*
X150821380Y-111604020D02*
X149718620Y-111604020D01*
X149718620Y-108895980D01*
X150821380Y-108895980D01*
X150821380Y-111604020D01*
X150821380Y-111604020D01*
G37*
G36*
X163791000Y-111401000D02*
X161149000Y-111401000D01*
X161149000Y-108759000D01*
X163791000Y-108759000D01*
X163791000Y-111401000D01*
X163791000Y-111401000D01*
G37*
G36*
X136331981Y-107847468D02*
X136514150Y-107922925D01*
X136678103Y-108032475D01*
X136817525Y-108171897D01*
X136927075Y-108335850D01*
X137002532Y-108518019D01*
X137041000Y-108711410D01*
X137041000Y-108908590D01*
X137002532Y-109101981D01*
X136927075Y-109284150D01*
X136817525Y-109448103D01*
X136678103Y-109587525D01*
X136514150Y-109697075D01*
X136331981Y-109772532D01*
X136138590Y-109811000D01*
X135941410Y-109811000D01*
X135748019Y-109772532D01*
X135565850Y-109697075D01*
X135401897Y-109587525D01*
X135262475Y-109448103D01*
X135152925Y-109284150D01*
X135077468Y-109101981D01*
X135039000Y-108908590D01*
X135039000Y-108711410D01*
X135077468Y-108518019D01*
X135152925Y-108335850D01*
X135262475Y-108171897D01*
X135401897Y-108032475D01*
X135565850Y-107922925D01*
X135748019Y-107847468D01*
X135941410Y-107809000D01*
X136138590Y-107809000D01*
X136331981Y-107847468D01*
X136331981Y-107847468D01*
G37*
G36*
X133791981Y-107847468D02*
X133974150Y-107922925D01*
X134138103Y-108032475D01*
X134277525Y-108171897D01*
X134387075Y-108335850D01*
X134462532Y-108518019D01*
X134501000Y-108711410D01*
X134501000Y-108908590D01*
X134462532Y-109101981D01*
X134387075Y-109284150D01*
X134277525Y-109448103D01*
X134138103Y-109587525D01*
X133974150Y-109697075D01*
X133791981Y-109772532D01*
X133598590Y-109811000D01*
X133401410Y-109811000D01*
X133208019Y-109772532D01*
X133025850Y-109697075D01*
X132861897Y-109587525D01*
X132722475Y-109448103D01*
X132612925Y-109284150D01*
X132537468Y-109101981D01*
X132499000Y-108908590D01*
X132499000Y-108711410D01*
X132537468Y-108518019D01*
X132612925Y-108335850D01*
X132722475Y-108171897D01*
X132861897Y-108032475D01*
X133025850Y-107922925D01*
X133208019Y-107847468D01*
X133401410Y-107809000D01*
X133598590Y-107809000D01*
X133791981Y-107847468D01*
X133791981Y-107847468D01*
G37*
G36*
X154258200Y-109742200D02*
X153241800Y-109742200D01*
X153241800Y-108725800D01*
X154258200Y-108725800D01*
X154258200Y-109742200D01*
X154258200Y-109742200D01*
G37*
G36*
X148281380Y-109699020D02*
X147178620Y-109699020D01*
X147178620Y-108895980D01*
X148281380Y-108895980D01*
X148281380Y-109699020D01*
X148281380Y-109699020D01*
G37*
G36*
X155989500Y-107458000D02*
X154490500Y-107458000D01*
X154490500Y-106467000D01*
X155989500Y-106467000D01*
X155989500Y-107458000D01*
X155989500Y-107458000D01*
G37*
G36*
X133791981Y-105307468D02*
X133974150Y-105382925D01*
X134138103Y-105492475D01*
X134277525Y-105631897D01*
X134387075Y-105795850D01*
X134462532Y-105978019D01*
X134501000Y-106171410D01*
X134501000Y-106368590D01*
X134462532Y-106561981D01*
X134387075Y-106744150D01*
X134277525Y-106908103D01*
X134138103Y-107047525D01*
X133974150Y-107157075D01*
X133791981Y-107232532D01*
X133598590Y-107271000D01*
X133401410Y-107271000D01*
X133208019Y-107232532D01*
X133025850Y-107157075D01*
X132861897Y-107047525D01*
X132722475Y-106908103D01*
X132612925Y-106744150D01*
X132537468Y-106561981D01*
X132499000Y-106368590D01*
X132499000Y-106171410D01*
X132537468Y-105978019D01*
X132612925Y-105795850D01*
X132722475Y-105631897D01*
X132861897Y-105492475D01*
X133025850Y-105382925D01*
X133208019Y-105307468D01*
X133401410Y-105269000D01*
X133598590Y-105269000D01*
X133791981Y-105307468D01*
X133791981Y-105307468D01*
G37*
G36*
X136331981Y-105307468D02*
X136514150Y-105382925D01*
X136678103Y-105492475D01*
X136817525Y-105631897D01*
X136927075Y-105795850D01*
X137002532Y-105978019D01*
X137041000Y-106171410D01*
X137041000Y-106368590D01*
X137002532Y-106561981D01*
X136927075Y-106744150D01*
X136817525Y-106908103D01*
X136678103Y-107047525D01*
X136514150Y-107157075D01*
X136331981Y-107232532D01*
X136138590Y-107271000D01*
X135941410Y-107271000D01*
X135748019Y-107232532D01*
X135565850Y-107157075D01*
X135401897Y-107047525D01*
X135262475Y-106908103D01*
X135152925Y-106744150D01*
X135077468Y-106561981D01*
X135039000Y-106368590D01*
X135039000Y-106171410D01*
X135077468Y-105978019D01*
X135152925Y-105795850D01*
X135262475Y-105631897D01*
X135401897Y-105492475D01*
X135565850Y-105382925D01*
X135748019Y-105307468D01*
X135941410Y-105269000D01*
X136138590Y-105269000D01*
X136331981Y-105307468D01*
X136331981Y-105307468D01*
G37*
G36*
X148622500Y-107130500D02*
X147377500Y-107130500D01*
X147377500Y-106393500D01*
X148622500Y-106393500D01*
X148622500Y-107130500D01*
X148622500Y-107130500D01*
G37*
G36*
X150622500Y-107130500D02*
X149377500Y-107130500D01*
X149377500Y-106393500D01*
X150622500Y-106393500D01*
X150622500Y-107130500D01*
X150622500Y-107130500D01*
G37*
G36*
X152622500Y-107120500D02*
X151377500Y-107120500D01*
X151377500Y-106383500D01*
X152622500Y-106383500D01*
X152622500Y-107120500D01*
X152622500Y-107120500D01*
G37*
G36*
X162770250Y-103712843D02*
X162855322Y-103729765D01*
X162925735Y-103758931D01*
X163095728Y-103829344D01*
X163312092Y-103973914D01*
X163496086Y-104157908D01*
X163640656Y-104374272D01*
X163711069Y-104544265D01*
X163740235Y-104614678D01*
X163791000Y-104869893D01*
X163791000Y-105130107D01*
X163740712Y-105382926D01*
X163740235Y-105385321D01*
X163640656Y-105625728D01*
X163496086Y-105842092D01*
X163312092Y-106026086D01*
X163095728Y-106170656D01*
X162925735Y-106241069D01*
X162855322Y-106270235D01*
X162770250Y-106287157D01*
X162600109Y-106321000D01*
X162339891Y-106321000D01*
X162169750Y-106287157D01*
X162084678Y-106270235D01*
X162014265Y-106241069D01*
X161844272Y-106170656D01*
X161627908Y-106026086D01*
X161443914Y-105842092D01*
X161299344Y-105625728D01*
X161199765Y-105385321D01*
X161199289Y-105382926D01*
X161149000Y-105130107D01*
X161149000Y-104869893D01*
X161199765Y-104614678D01*
X161228931Y-104544265D01*
X161299344Y-104374272D01*
X161443914Y-104157908D01*
X161627908Y-103973914D01*
X161844272Y-103829344D01*
X162014265Y-103758931D01*
X162084678Y-103729765D01*
X162169750Y-103712843D01*
X162339891Y-103679000D01*
X162600109Y-103679000D01*
X162770250Y-103712843D01*
X162770250Y-103712843D01*
G37*
G36*
X144630500Y-105622500D02*
X143893500Y-105622500D01*
X143893500Y-104377500D01*
X144630500Y-104377500D01*
X144630500Y-105622500D01*
X144630500Y-105622500D01*
G37*
G36*
X143106500Y-105622500D02*
X142369500Y-105622500D01*
X142369500Y-104377500D01*
X143106500Y-104377500D01*
X143106500Y-105622500D01*
X143106500Y-105622500D01*
G37*
G36*
X148622500Y-105606500D02*
X147377500Y-105606500D01*
X147377500Y-104869500D01*
X148622500Y-104869500D01*
X148622500Y-105606500D01*
X148622500Y-105606500D01*
G37*
G36*
X150622500Y-105606500D02*
X149377500Y-105606500D01*
X149377500Y-104869500D01*
X150622500Y-104869500D01*
X150622500Y-105606500D01*
X150622500Y-105606500D01*
G37*
G36*
X152622500Y-105596500D02*
X151377500Y-105596500D01*
X151377500Y-104859500D01*
X152622500Y-104859500D01*
X152622500Y-105596500D01*
X152622500Y-105596500D01*
G37*
G36*
X155989500Y-105553000D02*
X154490500Y-105553000D01*
X154490500Y-104562000D01*
X155989500Y-104562000D01*
X155989500Y-105553000D01*
X155989500Y-105553000D01*
G37*
G36*
X136331981Y-102767468D02*
X136514150Y-102842925D01*
X136678103Y-102952475D01*
X136817525Y-103091897D01*
X136927075Y-103255850D01*
X137002532Y-103438019D01*
X137041000Y-103631410D01*
X137041000Y-103828590D01*
X137002532Y-104021981D01*
X136927075Y-104204150D01*
X136817525Y-104368103D01*
X136678103Y-104507525D01*
X136514150Y-104617075D01*
X136331981Y-104692532D01*
X136138590Y-104731000D01*
X135941410Y-104731000D01*
X135748019Y-104692532D01*
X135565850Y-104617075D01*
X135401897Y-104507525D01*
X135262475Y-104368103D01*
X135152925Y-104204150D01*
X135077468Y-104021981D01*
X135039000Y-103828590D01*
X135039000Y-103631410D01*
X135077468Y-103438019D01*
X135152925Y-103255850D01*
X135262475Y-103091897D01*
X135401897Y-102952475D01*
X135565850Y-102842925D01*
X135748019Y-102767468D01*
X135941410Y-102729000D01*
X136138590Y-102729000D01*
X136331981Y-102767468D01*
X136331981Y-102767468D01*
G37*
G36*
X133791981Y-102767468D02*
X133974150Y-102842925D01*
X134138103Y-102952475D01*
X134277525Y-103091897D01*
X134387075Y-103255850D01*
X134462532Y-103438019D01*
X134501000Y-103631410D01*
X134501000Y-103828590D01*
X134462532Y-104021981D01*
X134387075Y-104204150D01*
X134277525Y-104368103D01*
X134138103Y-104507525D01*
X133974150Y-104617075D01*
X133791981Y-104692532D01*
X133598590Y-104731000D01*
X133401410Y-104731000D01*
X133208019Y-104692532D01*
X133025850Y-104617075D01*
X132861897Y-104507525D01*
X132722475Y-104368103D01*
X132612925Y-104204150D01*
X132537468Y-104021981D01*
X132499000Y-103828590D01*
X132499000Y-103631410D01*
X132537468Y-103438019D01*
X132612925Y-103255850D01*
X132722475Y-103091897D01*
X132861897Y-102952475D01*
X133025850Y-102842925D01*
X133208019Y-102767468D01*
X133401410Y-102729000D01*
X133598590Y-102729000D01*
X133791981Y-102767468D01*
X133791981Y-102767468D01*
G37*
G36*
X153650440Y-103700980D02*
X152349560Y-103700980D01*
X152349560Y-102400100D01*
X153650440Y-102400100D01*
X153650440Y-103700980D01*
X153650440Y-103700980D01*
G37*
G36*
X151349200Y-103700980D02*
X150048320Y-103700980D01*
X150048320Y-102400100D01*
X151349200Y-102400100D01*
X151349200Y-103700980D01*
X151349200Y-103700980D01*
G37*
G36*
X155951680Y-103700980D02*
X154650800Y-103700980D01*
X154650800Y-102400100D01*
X155951680Y-102400100D01*
X155951680Y-103700980D01*
X155951680Y-103700980D01*
G37*
G36*
X141620000Y-103470000D02*
X140480000Y-103470000D01*
X140480000Y-101530000D01*
X141620000Y-101530000D01*
X141620000Y-103470000D01*
X141620000Y-103470000D01*
G37*
G36*
X146520000Y-103470000D02*
X145380000Y-103470000D01*
X145380000Y-101530000D01*
X146520000Y-101530000D01*
X146520000Y-103470000D01*
X146520000Y-103470000D01*
G37*
G36*
X136331981Y-100227468D02*
X136514150Y-100302925D01*
X136678103Y-100412475D01*
X136817525Y-100551897D01*
X136927075Y-100715850D01*
X137002532Y-100898019D01*
X137041000Y-101091410D01*
X137041000Y-101288590D01*
X137002532Y-101481981D01*
X136927075Y-101664150D01*
X136817525Y-101828103D01*
X136678103Y-101967525D01*
X136514150Y-102077075D01*
X136331981Y-102152532D01*
X136138590Y-102191000D01*
X135941410Y-102191000D01*
X135748019Y-102152532D01*
X135565850Y-102077075D01*
X135401897Y-101967525D01*
X135262475Y-101828103D01*
X135152925Y-101664150D01*
X135077468Y-101481981D01*
X135039000Y-101288590D01*
X135039000Y-101091410D01*
X135077468Y-100898019D01*
X135152925Y-100715850D01*
X135262475Y-100551897D01*
X135401897Y-100412475D01*
X135565850Y-100302925D01*
X135748019Y-100227468D01*
X135941410Y-100189000D01*
X136138590Y-100189000D01*
X136331981Y-100227468D01*
X136331981Y-100227468D01*
G37*
G36*
X133791981Y-100227468D02*
X133974150Y-100302925D01*
X134138103Y-100412475D01*
X134277525Y-100551897D01*
X134387075Y-100715850D01*
X134462532Y-100898019D01*
X134501000Y-101091410D01*
X134501000Y-101288590D01*
X134462532Y-101481981D01*
X134387075Y-101664150D01*
X134277525Y-101828103D01*
X134138103Y-101967525D01*
X133974150Y-102077075D01*
X133791981Y-102152532D01*
X133598590Y-102191000D01*
X133401410Y-102191000D01*
X133208019Y-102152532D01*
X133025850Y-102077075D01*
X132861897Y-101967525D01*
X132722475Y-101828103D01*
X132612925Y-101664150D01*
X132537468Y-101481981D01*
X132499000Y-101288590D01*
X132499000Y-101091410D01*
X132537468Y-100898019D01*
X132612925Y-100715850D01*
X132722475Y-100551897D01*
X132861897Y-100412475D01*
X133025850Y-100302925D01*
X133208019Y-100227468D01*
X133401410Y-100189000D01*
X133598590Y-100189000D01*
X133791981Y-100227468D01*
X133791981Y-100227468D01*
G37*
G36*
X162770250Y-98632843D02*
X162855322Y-98649765D01*
X162925735Y-98678931D01*
X163095728Y-98749344D01*
X163312092Y-98893914D01*
X163496086Y-99077908D01*
X163640656Y-99294272D01*
X163711069Y-99464265D01*
X163740235Y-99534678D01*
X163791000Y-99789893D01*
X163791000Y-100050107D01*
X163740712Y-100302926D01*
X163740235Y-100305321D01*
X163640656Y-100545728D01*
X163496086Y-100762092D01*
X163312092Y-100946086D01*
X163095728Y-101090656D01*
X162925735Y-101161069D01*
X162855322Y-101190235D01*
X162816284Y-101198000D01*
X162600109Y-101241000D01*
X162339891Y-101241000D01*
X162123716Y-101198000D01*
X162084678Y-101190235D01*
X162014265Y-101161069D01*
X161844272Y-101090656D01*
X161627908Y-100946086D01*
X161443914Y-100762092D01*
X161299344Y-100545728D01*
X161199765Y-100305321D01*
X161199289Y-100302926D01*
X161149000Y-100050107D01*
X161149000Y-99789893D01*
X161199765Y-99534678D01*
X161228931Y-99464265D01*
X161299344Y-99294272D01*
X161443914Y-99077908D01*
X161627908Y-98893914D01*
X161844272Y-98749344D01*
X162014265Y-98678931D01*
X162084678Y-98649765D01*
X162169750Y-98632843D01*
X162339891Y-98599000D01*
X162600109Y-98599000D01*
X162770250Y-98632843D01*
X162770250Y-98632843D01*
G37*
G36*
X148999500Y-101198000D02*
X147500500Y-101198000D01*
X147500500Y-100207000D01*
X148999500Y-100207000D01*
X148999500Y-101198000D01*
X148999500Y-101198000D01*
G37*
G36*
X146130500Y-100622500D02*
X145393500Y-100622500D01*
X145393500Y-99377500D01*
X146130500Y-99377500D01*
X146130500Y-100622500D01*
X146130500Y-100622500D01*
G37*
G36*
X144606500Y-100622500D02*
X143869500Y-100622500D01*
X143869500Y-99377500D01*
X144606500Y-99377500D01*
X144606500Y-100622500D01*
X144606500Y-100622500D01*
G37*
G36*
X142880500Y-100622500D02*
X142143500Y-100622500D01*
X142143500Y-99377500D01*
X142880500Y-99377500D01*
X142880500Y-100622500D01*
X142880500Y-100622500D01*
G37*
G36*
X141356500Y-100622500D02*
X140619500Y-100622500D01*
X140619500Y-99377500D01*
X141356500Y-99377500D01*
X141356500Y-100622500D01*
X141356500Y-100622500D01*
G37*
G36*
X133791981Y-97687468D02*
X133974150Y-97762925D01*
X134138103Y-97872475D01*
X134277525Y-98011897D01*
X134387075Y-98175850D01*
X134462532Y-98358019D01*
X134501000Y-98551410D01*
X134501000Y-98748590D01*
X134462532Y-98941981D01*
X134387075Y-99124150D01*
X134277525Y-99288103D01*
X134138103Y-99427525D01*
X133974150Y-99537075D01*
X133791981Y-99612532D01*
X133598590Y-99651000D01*
X133401410Y-99651000D01*
X133208019Y-99612532D01*
X133025850Y-99537075D01*
X132861897Y-99427525D01*
X132722475Y-99288103D01*
X132612925Y-99124150D01*
X132537468Y-98941981D01*
X132499000Y-98748590D01*
X132499000Y-98551410D01*
X132537468Y-98358019D01*
X132612925Y-98175850D01*
X132722475Y-98011897D01*
X132861897Y-97872475D01*
X133025850Y-97762925D01*
X133208019Y-97687468D01*
X133401410Y-97649000D01*
X133598590Y-97649000D01*
X133791981Y-97687468D01*
X133791981Y-97687468D01*
G37*
G36*
X137091000Y-99651000D02*
X134989000Y-99651000D01*
X134989000Y-97649000D01*
X137091000Y-97649000D01*
X137091000Y-99651000D01*
X137091000Y-99651000D01*
G37*
G36*
X148999500Y-99293000D02*
X147500500Y-99293000D01*
X147500500Y-98302000D01*
X148999500Y-98302000D01*
X148999500Y-99293000D01*
X148999500Y-99293000D01*
G37*
G36*
X154850590Y-97599900D02*
X151149410Y-97599900D01*
X151149410Y-96299020D01*
X154850590Y-96299020D01*
X154850590Y-97599900D01*
X154850590Y-97599900D01*
G37*
G36*
X146596565Y-95489389D02*
X146787834Y-95568615D01*
X146959976Y-95683637D01*
X147106363Y-95830024D01*
X147221385Y-96002166D01*
X147300611Y-96193435D01*
X147341000Y-96396484D01*
X147341000Y-96603516D01*
X147300611Y-96806565D01*
X147221385Y-96997834D01*
X147106363Y-97169976D01*
X146959976Y-97316363D01*
X146787834Y-97431385D01*
X146596565Y-97510611D01*
X146393516Y-97551000D01*
X146186484Y-97551000D01*
X145983435Y-97510611D01*
X145792166Y-97431385D01*
X145620024Y-97316363D01*
X145473637Y-97169976D01*
X145358615Y-96997834D01*
X145279389Y-96806565D01*
X145239000Y-96603516D01*
X145239000Y-96396484D01*
X145279389Y-96193435D01*
X145358615Y-96002166D01*
X145473637Y-95830024D01*
X145620024Y-95683637D01*
X145792166Y-95568615D01*
X145983435Y-95489389D01*
X146186484Y-95449000D01*
X146393516Y-95449000D01*
X146596565Y-95489389D01*
X146596565Y-95489389D01*
G37*
G36*
X144056565Y-95489389D02*
X144247834Y-95568615D01*
X144419976Y-95683637D01*
X144566363Y-95830024D01*
X144681385Y-96002166D01*
X144760611Y-96193435D01*
X144801000Y-96396484D01*
X144801000Y-96603516D01*
X144760611Y-96806565D01*
X144681385Y-96997834D01*
X144566363Y-97169976D01*
X144419976Y-97316363D01*
X144247834Y-97431385D01*
X144056565Y-97510611D01*
X143853516Y-97551000D01*
X143646484Y-97551000D01*
X143443435Y-97510611D01*
X143252166Y-97431385D01*
X143080024Y-97316363D01*
X142933637Y-97169976D01*
X142818615Y-96997834D01*
X142739389Y-96806565D01*
X142699000Y-96603516D01*
X142699000Y-96396484D01*
X142739389Y-96193435D01*
X142818615Y-96002166D01*
X142933637Y-95830024D01*
X143080024Y-95683637D01*
X143252166Y-95568615D01*
X143443435Y-95489389D01*
X143646484Y-95449000D01*
X143853516Y-95449000D01*
X144056565Y-95489389D01*
X144056565Y-95489389D01*
G37*
G36*
X142261000Y-97551000D02*
X140159000Y-97551000D01*
X140159000Y-95449000D01*
X142261000Y-95449000D01*
X142261000Y-97551000D01*
X142261000Y-97551000D01*
G37*
M02*
