M48
;DRILL file {KiCad 5.0.2} date mar. 31 mars 2020 15:33:10 CEST
;FORMAT={-:-/ absolute / inch / decimal}
FMAT,2
INCH,TZ
T1C0.0120
T2C0.0433
T3C0.0469
T4C0.0472
T5C0.0600
%
G90
G05
T1
X5.3957Y-4.0339
X5.4528Y-4.5079
X5.6102Y-3.9862
X5.6201Y-4.1831
X5.7874Y-4.0256
X5.8071Y-4.4394
X5.8268Y-4.1043
X5.8465Y-4.0059
X5.9606Y-4.3406
X6.1319Y-4.3803
X6.1673Y-4.211
T2
X5.3559Y-3.8839
X5.5594Y-3.7992
X5.6594Y-3.7992
T3
X5.2559Y-3.8839
X5.2559Y-3.9839
X5.2559Y-4.0839
X5.2559Y-4.1839
X5.2559Y-4.2839
X5.2559Y-4.3839
X5.3559Y-3.9839
X5.3559Y-4.0839
X5.3559Y-4.1839
X5.3559Y-4.2839
X5.3559Y-4.3839
T4
X5.7594Y-3.7992
T5
X6.3965Y-3.9339
X6.3965Y-4.1339
X6.3965Y-4.3339
T0
M30
